<svg width="15" height="7" viewBox="0 0 15 7" fill="none" xmlns="http://www.w3.org/2000/svg">
<path d="M1 2.88042C0.76447 2.88042 0.573534 3.07135 0.573534 3.30688C0.573534 3.54242 0.76447 3.73335 1 3.73335V2.88042ZM14.0955 3.60844C14.2621 3.4419 14.2621 3.17187 14.0955 3.00533L11.3815 0.291318C11.215 0.124773 10.9449 0.124773 10.7784 0.291318C10.6119 0.457863 10.6119 0.727886 10.7784 0.894431L13.1909 3.30688L10.7784 5.71934C10.6119 5.88588 10.6119 6.15591 10.7784 6.32245C10.9449 6.489 11.215 6.489 11.3815 6.32245L14.0955 3.60844ZM1 3.73335L13.794 3.73335V2.88042L1 2.88042V3.73335Z" fill="#2F80ED"/>
</svg>
