<svg width="24" height="24" viewBox="0 0 24 24" fill="none" xmlns="http://www.w3.org/2000/svg">
<path fill-rule="evenodd" clip-rule="evenodd" d="M3.64645 18.0465C3.45118 18.2418 3.45119 18.5584 3.64645 18.7537C3.84171 18.9489 4.15829 18.9489 4.35355 18.7537L10.7536 12.3537C10.9488 12.1584 10.9488 11.8418 10.7536 11.6465L4.35355 5.24654C4.15829 5.05128 3.84171 5.05128 3.64645 5.24654C3.45118 5.44181 3.45118 5.75839 3.64645 5.95365L9.69289 12.0001L3.64645 18.0465ZM13.2464 18.0465C13.0512 18.2418 13.0512 18.5584 13.2464 18.7537C13.4417 18.9489 13.7583 18.9489 13.9536 18.7537L20.3536 12.3537C20.5488 12.1584 20.5488 11.8418 20.3536 11.6465L13.9536 5.24654C13.7583 5.05128 13.4417 5.05128 13.2464 5.24654C13.0512 5.44181 13.0512 5.75839 13.2464 5.95365L19.2929 12.0001L13.2464 18.0465Z" fill="#1E1E1E"/>
</svg>
