<svg width="24" height="24" viewBox="0 0 24 24" fill="none" xmlns="http://www.w3.org/2000/svg">
<path fill-rule="evenodd" clip-rule="evenodd" d="M10.7536 5.95365C10.9488 5.75839 10.9488 5.44181 10.7536 5.24654C10.5583 5.05128 10.2417 5.05128 10.0464 5.24654L3.64645 11.6465C3.45118 11.8418 3.45118 12.1584 3.64645 12.3537L10.0464 18.7537C10.2417 18.9489 10.5583 18.9489 10.7536 18.7537C10.9488 18.5584 10.9488 18.2418 10.7536 18.0465L4.70711 12.0001L10.7536 5.95365ZM20.3536 5.95365C20.5488 5.75839 20.5488 5.44181 20.3536 5.24654C20.1583 5.05128 19.8417 5.05128 19.6464 5.24654L13.2464 11.6465C13.1527 11.7403 13.1 11.8675 13.1 12.0001C13.1 12.1327 13.1527 12.2599 13.2464 12.3537L19.6464 18.7537C19.8417 18.9489 20.1583 18.9489 20.3536 18.7537C20.5488 18.5584 20.5488 18.2418 20.3536 18.0465L14.3071 12.0001L20.3536 5.95365Z" fill="#1E1E1E"/>
</svg>
