<svg width="26" height="24" viewBox="0 0 26 24" fill="none" xmlns="http://www.w3.org/2000/svg">
<path fill-rule="evenodd" clip-rule="evenodd" d="M22.9347 3.5625H5.66893L4.19371 0.918246C4.02812 0.621442 3.71487 0.4375 3.375 0.4375H1.5C0.982233 0.4375 0.5625 0.857233 0.5625 1.375C0.5625 1.89277 0.982233 2.3125 1.5 2.3125H2.8245L4.28037 4.92206L7.63796 12.3511L7.6414 12.3587L7.93713 13.013L4.56608 16.6088C4.32369 16.8674 4.24782 17.2405 4.36998 17.5732C4.49215 17.9058 4.79147 18.1412 5.14357 18.1814L8.21624 18.5326C12.0596 18.9718 15.9405 18.9718 19.7838 18.5326L22.8565 18.1814C23.3709 18.1226 23.7403 17.658 23.6815 17.1436C23.6227 16.6291 23.158 16.2598 22.6436 16.3186L19.5709 16.6697C15.869 17.0928 12.131 17.0928 8.42914 16.6697L7.20974 16.5304L9.68396 13.8912C9.7079 13.8657 9.73012 13.8392 9.75065 13.8118L10.6917 13.9342C12.0103 14.1058 13.3433 14.1395 14.6689 14.0346C17.7607 13.7901 20.6263 12.3189 22.6268 9.94884L23.3494 9.09282C23.3737 9.06407 23.3962 9.03388 23.4168 9.00243L24.7636 6.95011C25.7181 5.49541 24.6746 3.5625 22.9347 3.5625ZM9.82034 11.9301C9.61358 11.9032 9.43528 11.7718 9.34823 11.5826L9.34656 11.5789L6.57092 5.4375H22.9347C23.1832 5.4375 23.3323 5.71363 23.1959 5.92145L21.8802 7.92654L21.1941 8.7394C19.5165 10.7267 17.1137 11.9604 14.5211 12.1655C13.3253 12.26 12.123 12.2297 10.9336 12.0749L9.82034 11.9301Z" fill="white"/>
<path d="M7.125 20.125C6.08947 20.125 5.25 20.9645 5.25 22C5.25 23.0355 6.08947 23.875 7.125 23.875C8.16054 23.875 9 23.0355 9 22C9 20.9645 8.16054 20.125 7.125 20.125Z" fill="white"/>
<path d="M19 22C19 20.9645 19.8395 20.125 20.875 20.125C21.9105 20.125 22.75 20.9645 22.75 22C22.75 23.0355 21.9105 23.875 20.875 23.875C19.8395 23.875 19 23.0355 19 22Z" fill="white"/>
</svg>
