<svg width="20" height="18" viewBox="0 0 20 18" fill="none" xmlns="http://www.w3.org/2000/svg">
<path d="M4.41291 2.16291C4.77903 1.7968 4.77903 1.2032 4.41291 0.837087C4.0468 0.470971 3.4532 0.470971 3.08709 0.837087L0.587087 3.33709C0.220971 3.7032 0.220971 4.2968 0.587087 4.66291L3.08709 7.16291C3.4532 7.52903 4.0468 7.52903 4.41291 7.16291C4.77903 6.7968 4.77903 6.2032 4.41291 5.83709L3.51333 4.9375H16.25C16.7678 4.9375 17.1875 4.51777 17.1875 4C17.1875 3.48223 16.7678 3.0625 16.25 3.0625H3.51333L4.41291 2.16291Z" fill="#001A4E"/>
<path d="M15.5871 10.8371C15.221 11.2032 15.221 11.7968 15.5871 12.1629L16.4867 13.0625H3.75C3.23223 13.0625 2.8125 13.4822 2.8125 14C2.8125 14.5178 3.23223 14.9375 3.75 14.9375H16.4867L15.5871 15.8371C15.221 16.2032 15.221 16.7968 15.5871 17.1629C15.9532 17.529 16.5468 17.529 16.9129 17.1629L19.4129 14.6629C19.779 14.2968 19.779 13.7032 19.4129 13.3371L16.9129 10.8371C16.5468 10.471 15.9532 10.471 15.5871 10.8371Z" fill="#001A4E"/>
</svg>
