<svg width="16" height="14" viewBox="0 0 16 14" fill="none" xmlns="http://www.w3.org/2000/svg">
<path d="M3.559 1.55522C3.853 1.26122 3.853 0.784534 3.559 0.490526C3.26499 0.196517 2.78831 0.196517 2.4943 0.490526L0.486681 2.49814C0.192672 2.79215 0.192672 3.26883 0.486681 3.56284L2.4943 5.57046C2.78831 5.86447 3.26499 5.86447 3.559 5.57046C3.853 5.27645 3.853 4.79977 3.559 4.50576L2.83659 3.78335H13.0647C13.4805 3.78335 13.8176 3.44628 13.8176 3.03049C13.8176 2.6147 13.4805 2.27764 13.0647 2.27764H2.83659L3.559 1.55522Z" fill="#000F2E"/>
<path d="M12.5324 8.52099C12.2384 8.815 12.2384 9.29168 12.5324 9.58569L13.2548 10.3081H3.02665C2.61086 10.3081 2.27379 10.6452 2.27379 11.061C2.27379 11.4767 2.61086 11.8138 3.02665 11.8138H13.2548L12.5324 12.5362C12.2384 12.8302 12.2384 13.3069 12.5324 13.6009C12.8264 13.8949 13.3031 13.8949 13.5971 13.6009L15.6047 11.5933C15.8987 11.2993 15.8987 10.8226 15.6047 10.5286L13.5971 8.52099C13.3031 8.22698 12.8264 8.22698 12.5324 8.52099Z" fill="#000F2E"/>
</svg>
