<svg width="31" height="30" viewBox="0 0 31 30" fill="none" xmlns="http://www.w3.org/2000/svg">
<g opacity="0.5">
<path d="M0.630371 10.2834C0.630371 4.7606 5.10752 0.283447 10.6304 0.283447H20.3469C25.8698 0.283447 30.3469 4.7606 30.3469 10.2834V20C30.3469 25.5228 25.8698 30 20.3469 30H10.6304C5.10752 30 0.630371 25.5228 0.630371 20V10.2834Z" fill="#F3F2F1"/>
<path fill-rule="evenodd" clip-rule="evenodd" d="M16.143 7.95068C17.188 6.90523 18.6056 6.31787 20.0837 6.31787C21.5618 6.31787 22.9794 6.90521 24.0244 7.9506C25.0698 8.99559 25.6573 10.4133 25.6573 11.8914C25.6573 13.3696 25.0699 14.7872 24.0245 15.8322C24.0244 15.8322 24.0245 15.8321 24.0245 15.8322L15.8153 24.0414C15.6339 24.2227 15.3399 24.2227 15.1586 24.0414L6.94942 15.8322C4.77301 13.6558 4.77301 10.1271 6.94942 7.95068C9.12583 5.77426 12.6545 5.77426 14.8309 7.95068L15.4869 8.60671L16.143 7.95068C16.143 7.95065 16.143 7.9507 16.143 7.95068ZM20.0837 7.24651C18.8519 7.24651 17.6705 7.73601 16.7997 8.60725L15.8153 9.59169C15.7282 9.67876 15.6101 9.72768 15.4869 9.72768C15.3638 9.72768 15.2457 9.67876 15.1586 9.59169L14.1743 8.60733C12.3605 6.79357 9.41982 6.79357 7.60607 8.60733C5.79231 10.4211 5.79231 13.3618 7.60607 15.1755L15.4869 23.0564L23.3678 15.1755C24.2391 14.3047 24.7286 13.1233 24.7286 11.8914C24.7286 10.6596 24.2391 9.47824 23.3679 8.6074C22.4971 7.73616 21.3156 7.24651 20.0837 7.24651Z" fill="#414141"/>
</g>
</svg>
