<svg width="34" height="34" viewBox="0 0 34 34" fill="none" xmlns="http://www.w3.org/2000/svg">
<path fill-rule="evenodd" clip-rule="evenodd" d="M4.60425 14.2089C4.60425 10.3832 7.96053 7.4375 11.9001 7.4375C13.9308 7.4375 15.7178 8.3897 17.0001 9.62176C18.2824 8.3897 20.0693 7.4375 22.1001 7.4375C26.0396 7.4375 29.3959 10.3832 29.3959 14.2089C29.3959 16.8295 28.2783 19.1341 26.73 21.0822C25.1843 23.0269 23.1625 24.6773 21.2267 26.0185C20.4873 26.5307 19.7392 27.0032 19.0546 27.3519C18.4118 27.6793 17.6726 27.9792 17.0001 27.9792C16.3275 27.9792 15.5884 27.6793 14.9455 27.3519C14.2609 27.0032 13.5129 26.5307 12.7735 26.0185C10.8377 24.6773 8.81582 23.0269 7.27016 21.0822C5.72183 19.1341 4.60425 16.8295 4.60425 14.2089ZM11.9001 9.5625C8.95448 9.5625 6.72925 11.7287 6.72925 14.2089C6.72925 16.1972 7.57328 18.0483 8.93371 19.76C10.2968 21.475 12.1309 22.9881 13.9836 24.2717C14.6847 24.7574 15.345 25.1706 15.9099 25.4583C16.5165 25.7672 16.8679 25.8542 17.0001 25.8542C17.1323 25.8542 17.4837 25.7672 18.0903 25.4583C18.6551 25.1706 19.3155 24.7574 20.0165 24.2717C21.8693 22.9881 23.7033 21.475 25.0665 19.76C26.4269 18.0483 27.2709 16.1972 27.2709 14.2089C27.2709 11.7287 25.0457 9.5625 22.1001 9.5625C20.4084 9.5625 18.8287 10.5732 17.8424 11.856C17.6413 12.1175 17.33 12.2708 17.0001 12.2708C16.6701 12.2708 16.3589 12.1175 16.1578 11.856C15.1715 10.5732 13.5918 9.5625 11.9001 9.5625Z" fill="#A0A0A0"/>
</svg>
