<svg width="21" height="21" viewBox="0 0 21 21" fill="none" xmlns="http://www.w3.org/2000/svg">
<path fill-rule="evenodd" clip-rule="evenodd" d="M6.34377 8.75C6.34377 6.45457 8.20459 4.59375 10.5 4.59375C12.7955 4.59375 14.6563 6.45457 14.6563 8.75C14.6563 11.0454 12.7955 12.9063 10.5 12.9063C8.20459 12.9063 6.34377 11.0454 6.34377 8.75ZM10.5 5.90625C8.92946 5.90625 7.65627 7.17944 7.65627 8.75C7.65627 10.3206 8.92946 11.5938 10.5 11.5938C12.0706 11.5938 13.3438 10.3206 13.3438 8.75C13.3438 7.17944 12.0706 5.90625 10.5 5.90625Z" fill="white"/>
<path fill-rule="evenodd" clip-rule="evenodd" d="M3.08384 7.74975C3.39388 3.98846 6.53701 1.09375 10.3111 1.09375H10.689C14.463 1.09375 17.6062 3.98846 17.9162 7.74975C18.0828 9.77025 17.4586 11.7765 16.1753 13.346L11.9814 18.4751C11.2158 19.4114 9.7843 19.4114 9.01867 18.4751L4.82474 13.346C3.54141 11.7765 2.91729 9.77025 3.08384 7.74975ZM10.3111 2.40625C7.22008 2.40625 4.64583 4.77704 4.3919 7.85757C4.25329 9.53918 4.77273 11.209 5.84081 12.5152L10.0347 17.6442C10.2752 17.9383 10.7248 17.9383 10.9653 17.6442L15.1592 12.5152C16.2273 11.209 16.7468 9.53918 16.6081 7.85757C16.3542 4.77704 13.78 2.40625 10.689 2.40625H10.3111Z" fill="white"/>
</svg>
