<svg width="23" height="23" viewBox="0 0 23 23" fill="none" xmlns="http://www.w3.org/2000/svg">
<path fill-rule="evenodd" clip-rule="evenodd" d="M3.30035 9.32046C5.53449 14.1853 9.5101 18.053 14.4523 20.1488L14.4679 20.1554L15.4227 20.581C16.6385 21.1226 18.0675 20.7379 18.847 19.6591L20.44 17.4544C20.5373 17.3197 20.5122 17.1325 20.3829 17.0281L17.602 14.7846C17.4637 14.6731 17.2604 14.6991 17.1547 14.8418L16.0723 16.3023C15.8095 16.657 15.3348 16.7802 14.9326 16.5982C11.2371 14.9258 8.26745 11.9562 6.59504 8.26065C6.41302 7.85845 6.53627 7.38376 6.89095 7.1209L8.35143 6.03858C8.49414 5.93282 8.52011 5.72954 8.40858 5.59129L6.16478 2.80999C6.06049 2.68072 5.87331 2.65561 5.73865 2.75283L3.52203 4.35302C2.43605 5.13701 2.0536 6.57807 2.60793 7.79738L3.2996 9.31883C3.29985 9.31937 3.3001 9.31992 3.30035 9.32046ZM13.7124 21.8716C8.34239 19.5922 4.02318 15.3884 1.59563 10.1012L1.59416 10.098L0.901036 8.57337C-0.022839 6.54118 0.614571 4.13942 2.42455 2.83278L4.64116 1.23258C5.58381 0.55207 6.8941 0.727826 7.6241 1.63269L9.8679 4.414C10.6486 5.38171 10.4668 6.8047 9.46781 7.54501L8.63093 8.1652C10.0446 10.9082 12.285 13.1487 15.028 14.5623L15.6482 13.7254C16.3885 12.7265 17.8115 12.5446 18.7793 13.3253L21.5602 15.5688C22.4653 16.299 22.6409 17.6098 21.9598 18.5525L20.3668 20.7572C19.0676 22.5553 16.6859 23.1965 14.6596 22.2936L13.7124 21.8716Z" fill="#001A4E"/>
</svg>
