<svg width="96" height="17" viewBox="0 0 96 17" fill="none" xmlns="http://www.w3.org/2000/svg">
<path d="M7.10263 1.82487C7.46896 1.0799 8.53104 1.07991 8.89737 1.82487L10.1189 4.30891C10.2643 4.60456 10.5459 4.80962 10.872 4.85717L13.6093 5.25637C14.4284 5.37582 14.756 6.38187 14.1643 6.96072L12.1789 8.903C11.9443 9.13257 11.8372 9.46269 11.8925 9.78628L12.3606 12.5251C12.5003 13.3425 11.6416 13.965 10.9082 13.578L8.46666 12.2898C8.17463 12.1357 7.82537 12.1357 7.53334 12.2898L5.09179 13.578C4.35838 13.965 3.49973 13.3425 3.63942 12.5251L4.10747 9.78627C4.16277 9.46269 4.05573 9.13257 3.82107 8.903L1.8357 6.96072C1.244 6.38187 1.5716 5.37582 2.3907 5.25637L5.12805 4.85717C5.45406 4.80962 5.73573 4.60456 5.88111 4.30891L7.10263 1.82487Z" fill="#2F80ED"/>
<path d="M27.1026 1.82487C27.469 1.0799 28.531 1.07991 28.8974 1.82487L30.1189 4.30891C30.2643 4.60456 30.5459 4.80962 30.872 4.85717L33.6093 5.25637C34.4284 5.37582 34.756 6.38187 34.1643 6.96072L32.1789 8.903C31.9443 9.13257 31.8372 9.46269 31.8925 9.78628L32.3606 12.5251C32.5003 13.3425 31.6416 13.965 30.9082 13.578L28.4667 12.2898C28.1746 12.1357 27.8254 12.1357 27.5333 12.2898L25.0918 13.578C24.3584 13.965 23.4997 13.3425 23.6394 12.5251L24.1075 9.78627C24.1628 9.46269 24.0557 9.13257 23.8211 8.903L21.8357 6.96072C21.244 6.38187 21.5716 5.37582 22.3907 5.25637L25.1281 4.85717C25.4541 4.80962 25.7357 4.60456 25.8811 4.30891L27.1026 1.82487Z" fill="#2F80ED"/>
<path d="M47.1026 1.82487C47.469 1.0799 48.531 1.07991 48.8974 1.82487L50.1189 4.30891C50.2643 4.60456 50.5459 4.80962 50.872 4.85717L53.6093 5.25637C54.4284 5.37582 54.756 6.38187 54.1643 6.96072L52.1789 8.903C51.9443 9.13257 51.8372 9.46269 51.8925 9.78628L52.3606 12.5251C52.5003 13.3425 51.6416 13.965 50.9082 13.578L48.4667 12.2898C48.1746 12.1357 47.8254 12.1357 47.5333 12.2898L45.0918 13.578C44.3584 13.965 43.4997 13.3425 43.6394 12.5251L44.1075 9.78627C44.1628 9.46269 44.0557 9.13257 43.8211 8.903L41.8357 6.96072C41.244 6.38187 41.5716 5.37582 42.3907 5.25637L45.1281 4.85717C45.4541 4.80962 45.7357 4.60456 45.8811 4.30891L47.1026 1.82487Z" fill="#BFBFBF"/>
<path d="M67.1026 1.82487C67.469 1.0799 68.531 1.07991 68.8974 1.82487L70.1189 4.30891C70.2643 4.60456 70.5459 4.80962 70.872 4.85717L73.6093 5.25637C74.4284 5.37582 74.756 6.38187 74.1643 6.96072L72.1789 8.903C71.9443 9.13257 71.8372 9.46269 71.8925 9.78628L72.3606 12.5251C72.5003 13.3425 71.6416 13.965 70.9082 13.578L68.4667 12.2898C68.1746 12.1357 67.8254 12.1357 67.5333 12.2898L65.0918 13.578C64.3584 13.965 63.4997 13.3425 63.6394 12.5251L64.1075 9.78627C64.1628 9.46269 64.0557 9.13257 63.8211 8.903L61.8357 6.96072C61.244 6.38187 61.5716 5.37582 62.3907 5.25637L65.1281 4.85717C65.4541 4.80962 65.7357 4.60456 65.8811 4.30891L67.1026 1.82487Z" fill="#BFBFBF"/>
<path d="M87.1026 1.82487C87.469 1.0799 88.531 1.07991 88.8974 1.82487L90.1189 4.30891C90.2643 4.60456 90.5459 4.80962 90.872 4.85717L93.6093 5.25637C94.4284 5.37582 94.756 6.38187 94.1643 6.96072L92.1789 8.903C91.9443 9.13257 91.8372 9.46269 91.8925 9.78628L92.3606 12.5251C92.5003 13.3425 91.6416 13.965 90.9082 13.578L88.4667 12.2898C88.1746 12.1357 87.8254 12.1357 87.5333 12.2898L85.0918 13.578C84.3584 13.965 83.4997 13.3425 83.6394 12.5251L84.1075 9.78627C84.1628 9.46269 84.0557 9.13257 83.8211 8.903L81.8357 6.96072C81.244 6.38187 81.5716 5.37582 82.3907 5.25637L85.1281 4.85717C85.4541 4.80962 85.7357 4.60456 85.8811 4.30891L87.1026 1.82487Z" fill="#BFBFBF"/>
</svg>
