<svg width="23" height="23" viewBox="0 0 23 23" fill="none" xmlns="http://www.w3.org/2000/svg">
<path fill-rule="evenodd" clip-rule="evenodd" d="M13.9813 15.3072C10.6685 17.9605 5.81921 17.7517 2.74823 14.6807C-0.546823 11.3856 -0.546823 6.04331 2.74823 2.74826C6.04327 -0.546785 11.3856 -0.546784 14.6807 2.74826C17.7516 5.81924 17.9605 10.6685 15.3072 13.9814L21.7517 20.4259C22.1178 20.792 22.1178 21.3856 21.7517 21.7517C21.3856 22.1178 20.792 22.1178 20.4259 21.7517L13.9813 15.3072ZM4.07405 13.3549C1.51124 10.792 1.51124 6.63691 4.07405 4.07409C6.63687 1.51127 10.792 1.51127 13.3548 4.07409C15.9158 6.63502 15.9176 10.7859 13.3605 13.3492C13.3586 13.3511 13.3567 13.353 13.3548 13.3548C13.3529 13.3567 13.3511 13.3586 13.3492 13.3605C10.7859 15.9177 6.63499 15.9158 4.07405 13.3549Z" fill="#000F2E"/>
</svg>
