<svg width="560" height="200" viewBox="0 0 560 200" fill="none" xmlns="http://www.w3.org/2000/svg">
<mask id="mask0_92_10657" style="mask-type:alpha" maskUnits="userSpaceOnUse" x="0" y="0" width="560" height="200">
<rect width="560" height="200" rx="25" fill="white"/>
</mask>
<g mask="url(#mask0_92_10657)">
<mask id="mask1_92_10657" style="mask-type:alpha" maskUnits="userSpaceOnUse" x="340" y="-75" width="436" height="400">
<path fill-rule="evenodd" clip-rule="evenodd" d="M603.494 -6.62965C623.249 0.419868 642.719 -20.0709 663.677 -20.899C700.06 -22.3365 750.816 -43.6902 770.776 -13.239C790.122 16.2767 744.392 50.2928 732 83.3365C724.192 104.158 728.936 132.079 711.233 145.536C692.665 159.65 655.329 131.623 642.691 151.224C612.168 198.562 645.706 275.335 603.494 312.629C572.37 340.127 516.596 316.557 482.669 292.602C449.189 268.962 447.891 220.365 424.836 186.48C399.395 149.088 335.187 128.274 340.287 83.3365C345.631 36.2498 411.963 24.9966 446.81 -7.12127C470.29 -28.7629 480.142 -75.1 512.074 -74.9998C550.787 -74.8784 567.034 -19.6409 603.494 -6.62965Z" fill="#C4C4C4"/>
</mask>
<g mask="url(#mask1_92_10657)">
<rect x="510.07" y="-352.948" width="3.22581" height="629.032" transform="rotate(45 510.07 -352.948)" fill="#2F80ED"/>
<rect x="514.632" y="-348.386" width="3.22581" height="629.032" transform="rotate(45 514.632 -348.386)" fill="#2F80ED"/>
<rect x="519.194" y="-343.824" width="3.22581" height="629.032" transform="rotate(45 519.194 -343.824)" fill="#2F80ED"/>
<rect x="523.756" y="-339.262" width="3.22581" height="629.032" transform="rotate(45 523.756 -339.262)" fill="#2F80ED"/>
<rect x="528.318" y="-334.7" width="3.22581" height="629.032" transform="rotate(45 528.318 -334.7)" fill="#2F80ED"/>
<rect x="532.88" y="-330.138" width="3.22581" height="629.032" transform="rotate(45 532.88 -330.138)" fill="#2F80ED"/>
<rect x="537.442" y="-325.576" width="3.22581" height="629.032" transform="rotate(45 537.442 -325.576)" fill="#2F80ED"/>
<rect x="542.004" y="-321.014" width="3.22581" height="629.032" transform="rotate(45 542.004 -321.014)" fill="#2F80ED"/>
<rect x="546.566" y="-316.452" width="3.22581" height="629.032" transform="rotate(45 546.566 -316.452)" fill="#2F80ED"/>
<rect x="551.128" y="-311.89" width="3.22581" height="629.032" transform="rotate(45 551.128 -311.89)" fill="#2F80ED"/>
<rect x="555.69" y="-307.329" width="3.22581" height="629.032" transform="rotate(45 555.69 -307.329)" fill="#2F80ED"/>
<rect x="560.252" y="-302.767" width="3.22581" height="629.032" transform="rotate(45 560.252 -302.767)" fill="#2F80ED"/>
<rect x="564.814" y="-298.205" width="3.22581" height="629.032" transform="rotate(45 564.814 -298.205)" fill="#2F80ED"/>
<rect x="569.376" y="-293.643" width="3.22581" height="629.032" transform="rotate(45 569.376 -293.643)" fill="#2F80ED"/>
<rect x="573.938" y="-289.081" width="3.22581" height="629.032" transform="rotate(45 573.938 -289.081)" fill="#2F80ED"/>
<rect x="578.5" y="-284.519" width="3.22581" height="629.032" transform="rotate(45 578.5 -284.519)" fill="#2F80ED"/>
<rect x="583.062" y="-279.957" width="3.22581" height="629.032" transform="rotate(45 583.062 -279.957)" fill="#2F80ED"/>
<rect x="587.624" y="-275.395" width="3.22581" height="629.032" transform="rotate(45 587.624 -275.395)" fill="#2F80ED"/>
<rect x="592.186" y="-270.833" width="3.22581" height="629.032" transform="rotate(45 592.186 -270.833)" fill="#2F80ED"/>
<rect x="596.748" y="-266.271" width="3.22581" height="629.032" transform="rotate(45 596.748 -266.271)" fill="#2F80ED"/>
<rect x="601.31" y="-261.709" width="3.22581" height="629.032" transform="rotate(45 601.31 -261.709)" fill="#2F80ED"/>
<rect x="605.872" y="-257.147" width="3.22581" height="629.032" transform="rotate(45 605.872 -257.147)" fill="#2F80ED"/>
<rect x="610.434" y="-252.585" width="3.22581" height="629.032" transform="rotate(45 610.434 -252.585)" fill="#2F80ED"/>
<rect x="614.996" y="-248.023" width="3.22581" height="629.032" transform="rotate(45 614.996 -248.023)" fill="#2F80ED"/>
<rect x="619.558" y="-243.461" width="3.22581" height="629.032" transform="rotate(45 619.558 -243.461)" fill="#2F80ED"/>
<rect x="624.12" y="-238.899" width="3.22581" height="629.032" transform="rotate(45 624.12 -238.899)" fill="#2F80ED"/>
<rect x="628.682" y="-234.337" width="3.22581" height="629.032" transform="rotate(45 628.682 -234.337)" fill="#2F80ED"/>
<rect x="633.243" y="-229.775" width="3.22581" height="629.032" transform="rotate(45 633.243 -229.775)" fill="#2F80ED"/>
<rect x="637.806" y="-225.213" width="3.22581" height="629.032" transform="rotate(45 637.806 -225.213)" fill="#2F80ED"/>
<rect x="642.368" y="-220.651" width="3.22581" height="629.032" transform="rotate(45 642.368 -220.651)" fill="#2F80ED"/>
<rect x="646.929" y="-216.089" width="3.22581" height="629.032" transform="rotate(45 646.929 -216.089)" fill="#2F80ED"/>
<rect x="651.491" y="-211.527" width="3.22581" height="629.032" transform="rotate(45 651.491 -211.527)" fill="#2F80ED"/>
<rect x="656.054" y="-206.965" width="3.22581" height="629.032" transform="rotate(45 656.054 -206.965)" fill="#2F80ED"/>
<rect x="660.616" y="-202.403" width="3.22581" height="629.032" transform="rotate(45 660.616 -202.403)" fill="#2F80ED"/>
<rect x="665.177" y="-197.841" width="3.22581" height="629.032" transform="rotate(45 665.177 -197.841)" fill="#2F80ED"/>
<rect x="669.739" y="-193.279" width="3.22581" height="629.032" transform="rotate(45 669.739 -193.279)" fill="#2F80ED"/>
<rect x="674.302" y="-188.717" width="3.22581" height="629.032" transform="rotate(45 674.302 -188.717)" fill="#2F80ED"/>
<rect x="678.864" y="-184.155" width="3.22581" height="629.032" transform="rotate(45 678.864 -184.155)" fill="#2F80ED"/>
<rect x="683.425" y="-179.593" width="3.22581" height="629.032" transform="rotate(45 683.425 -179.593)" fill="#2F80ED"/>
<rect x="687.987" y="-175.031" width="3.22581" height="629.032" transform="rotate(45 687.987 -175.031)" fill="#2F80ED"/>
<rect x="692.549" y="-170.469" width="3.22581" height="629.032" transform="rotate(45 692.549 -170.469)" fill="#2F80ED"/>
<rect x="697.111" y="-165.907" width="3.22581" height="629.032" transform="rotate(45 697.111 -165.907)" fill="#2F80ED"/>
<rect x="701.673" y="-161.345" width="3.22581" height="629.032" transform="rotate(45 701.673 -161.345)" fill="#2F80ED"/>
<rect x="706.235" y="-156.783" width="3.22581" height="629.032" transform="rotate(45 706.235 -156.783)" fill="#2F80ED"/>
<rect x="710.797" y="-152.221" width="3.22581" height="629.032" transform="rotate(45 710.797 -152.221)" fill="#2F80ED"/>
<rect x="715.359" y="-147.659" width="3.22581" height="629.032" transform="rotate(45 715.359 -147.659)" fill="#2F80ED"/>
<rect x="719.921" y="-143.097" width="3.22581" height="629.032" transform="rotate(45 719.921 -143.097)" fill="#2F80ED"/>
<rect x="724.483" y="-138.535" width="3.22581" height="629.032" transform="rotate(45 724.483 -138.535)" fill="#2F80ED"/>
<rect x="729.045" y="-133.973" width="3.22581" height="629.032" transform="rotate(45 729.045 -133.973)" fill="#2F80ED"/>
<rect x="733.607" y="-129.411" width="3.22581" height="629.032" transform="rotate(45 733.607 -129.411)" fill="#2F80ED"/>
<rect x="738.169" y="-124.849" width="3.22581" height="629.032" transform="rotate(45 738.169 -124.849)" fill="#2F80ED"/>
<rect x="742.731" y="-120.287" width="3.22581" height="629.032" transform="rotate(45 742.731 -120.287)" fill="#2F80ED"/>
<rect x="747.293" y="-115.725" width="3.22581" height="629.032" transform="rotate(45 747.293 -115.725)" fill="#2F80ED"/>
<rect x="751.855" y="-111.163" width="3.22581" height="629.032" transform="rotate(45 751.855 -111.163)" fill="#2F80ED"/>
<rect x="756.417" y="-106.601" width="3.22581" height="629.032" transform="rotate(45 756.417 -106.601)" fill="#2F80ED"/>
<rect x="760.979" y="-102.039" width="3.22581" height="629.032" transform="rotate(45 760.979 -102.039)" fill="#2F80ED"/>
<rect x="765.541" y="-97.4775" width="3.22581" height="629.032" transform="rotate(45 765.541 -97.4775)" fill="#2F80ED"/>
<rect x="770.103" y="-92.9155" width="3.22581" height="629.032" transform="rotate(45 770.103 -92.9155)" fill="#2F80ED"/>
<rect x="774.665" y="-88.3535" width="3.22581" height="629.032" transform="rotate(45 774.665 -88.3535)" fill="#2F80ED"/>
<rect x="779.227" y="-83.7915" width="3.22581" height="629.032" transform="rotate(45 779.227 -83.7915)" fill="#2F80ED"/>
<rect x="783.789" y="-79.2295" width="3.22581" height="629.032" transform="rotate(45 783.789 -79.2295)" fill="#2F80ED"/>
<rect x="788.351" y="-74.6676" width="3.22581" height="629.032" transform="rotate(45 788.351 -74.6676)" fill="#2F80ED"/>
<rect x="792.913" y="-70.1056" width="3.22581" height="629.032" transform="rotate(45 792.913 -70.1056)" fill="#2F80ED"/>
<rect x="797.475" y="-65.5436" width="3.22581" height="629.032" transform="rotate(45 797.475 -65.5436)" fill="#2F80ED"/>
<rect x="802.037" y="-60.9816" width="3.22581" height="629.032" transform="rotate(45 802.037 -60.9816)" fill="#2F80ED"/>
<rect x="806.599" y="-56.4196" width="3.22581" height="629.032" transform="rotate(45 806.599 -56.4196)" fill="#2F80ED"/>
<rect x="811.161" y="-51.8576" width="3.22581" height="629.032" transform="rotate(45 811.161 -51.8576)" fill="#2F80ED"/>
<rect x="815.723" y="-47.2957" width="3.22581" height="629.032" transform="rotate(45 815.723 -47.2957)" fill="#2F80ED"/>
<rect x="820.285" y="-42.7337" width="3.22581" height="629.032" transform="rotate(45 820.285 -42.7337)" fill="#2F80ED"/>
<rect x="824.847" y="-38.1718" width="3.22581" height="629.032" transform="rotate(45 824.847 -38.1718)" fill="#2F80ED"/>
<rect x="829.409" y="-33.6098" width="3.22581" height="629.032" transform="rotate(45 829.409 -33.6098)" fill="#2F80ED"/>
<rect x="833.971" y="-29.0478" width="3.22581" height="629.032" transform="rotate(45 833.971 -29.0478)" fill="#2F80ED"/>
<rect x="838.533" y="-24.4858" width="3.22581" height="629.032" transform="rotate(45 838.533 -24.4858)" fill="#2F80ED"/>
<rect x="843.095" y="-19.9238" width="3.22581" height="629.032" transform="rotate(45 843.095 -19.9238)" fill="#2F80ED"/>
<rect x="847.657" y="-15.3619" width="3.22581" height="629.032" transform="rotate(45 847.657 -15.3619)" fill="#2F80ED"/>
<rect x="852.219" y="-10.7999" width="3.22581" height="629.032" transform="rotate(45 852.219 -10.7999)" fill="#2F80ED"/>
<rect x="856.781" y="-6.23792" width="3.22581" height="629.032" transform="rotate(45 856.781 -6.23792)" fill="#2F80ED"/>
<rect x="861.342" y="-1.6759" width="3.22581" height="629.032" transform="rotate(45 861.342 -1.6759)" fill="#2F80ED"/>
<rect x="865.905" y="2.88605" width="3.22581" height="629.032" transform="rotate(45 865.905 2.88605)" fill="#2F80ED"/>
<rect x="870.467" y="7.44803" width="3.22581" height="629.032" transform="rotate(45 870.467 7.44803)" fill="#2F80ED"/>
<rect x="875.028" y="12.0101" width="3.22581" height="629.032" transform="rotate(45 875.028 12.0101)" fill="#2F80ED"/>
<rect x="879.59" y="16.572" width="3.22581" height="629.032" transform="rotate(45 879.59 16.572)" fill="#2F80ED"/>
<rect x="884.152" y="21.134" width="3.22581" height="629.032" transform="rotate(45 884.152 21.134)" fill="#2F80ED"/>
<rect x="888.715" y="25.696" width="3.22581" height="629.032" transform="rotate(45 888.715 25.696)" fill="#2F80ED"/>
<rect x="893.276" y="30.258" width="3.22581" height="629.032" transform="rotate(45 893.276 30.258)" fill="#2F80ED"/>
<rect x="897.838" y="34.82" width="3.22581" height="629.032" transform="rotate(45 897.838 34.82)" fill="#2F80ED"/>
<rect x="902.4" y="39.382" width="3.22581" height="629.032" transform="rotate(45 902.4 39.382)" fill="#2F80ED"/>
<rect x="906.962" y="43.9439" width="3.22581" height="629.032" transform="rotate(45 906.962 43.9439)" fill="#2F80ED"/>
<rect x="911.524" y="48.506" width="3.22581" height="629.032" transform="rotate(45 911.524 48.506)" fill="#2F80ED"/>
<rect x="916.086" y="53.0678" width="3.22581" height="629.032" transform="rotate(45 916.086 53.0678)" fill="#2F80ED"/>
<rect x="920.648" y="57.6298" width="3.22581" height="629.032" transform="rotate(45 920.648 57.6298)" fill="#2F80ED"/>
<rect x="925.21" y="62.1917" width="3.22581" height="629.032" transform="rotate(45 925.21 62.1917)" fill="#2F80ED"/>
<rect x="929.772" y="66.7538" width="3.22581" height="629.032" transform="rotate(45 929.772 66.7538)" fill="#2F80ED"/>
<rect x="934.334" y="71.3157" width="3.22581" height="629.032" transform="rotate(45 934.334 71.3157)" fill="#2F80ED"/>
<rect x="938.896" y="75.8777" width="3.22581" height="629.032" transform="rotate(45 938.896 75.8777)" fill="#2F80ED"/>
<rect x="943.458" y="80.4397" width="3.22581" height="629.032" transform="rotate(45 943.458 80.4397)" fill="#2F80ED"/>
<rect x="948.02" y="85.0017" width="3.22581" height="629.032" transform="rotate(45 948.02 85.0017)" fill="#2F80ED"/>
<rect x="952.582" y="89.5637" width="3.22581" height="629.032" transform="rotate(45 952.582 89.5637)" fill="#2F80ED"/>
<rect x="957.144" y="94.1257" width="3.22581" height="629.032" transform="rotate(45 957.144 94.1257)" fill="#2F80ED"/>
<rect x="961.706" y="98.6876" width="3.22581" height="629.032" transform="rotate(45 961.706 98.6876)" fill="#2F80ED"/>
<rect x="966.268" y="103.25" width="3.22581" height="629.032" transform="rotate(45 966.268 103.25)" fill="#2F80ED"/>
<rect x="970.83" y="107.812" width="3.22581" height="629.032" transform="rotate(45 970.83 107.812)" fill="#2F80ED"/>
<rect x="975.392" y="112.374" width="3.22581" height="629.032" transform="rotate(45 975.392 112.374)" fill="#2F80ED"/>
<rect x="979.954" y="116.936" width="3.22581" height="629.032" transform="rotate(45 979.954 116.936)" fill="#2F80ED"/>
<rect x="984.516" y="121.497" width="3.22581" height="629.032" transform="rotate(45 984.516 121.497)" fill="#2F80ED"/>
<rect x="989.078" y="126.06" width="3.22581" height="629.032" transform="rotate(45 989.078 126.06)" fill="#2F80ED"/>
<rect x="993.64" y="130.621" width="3.22581" height="629.032" transform="rotate(45 993.64 130.621)" fill="#2F80ED"/>
<rect x="998.202" y="135.184" width="3.22581" height="629.032" transform="rotate(45 998.202 135.184)" fill="#2F80ED"/>
<rect x="1002.76" y="139.745" width="3.22581" height="629.032" transform="rotate(45 1002.76 139.745)" fill="#2F80ED"/>
</g>
</g>
</svg>
