<svg width="374" height="200" viewBox="0 0 374 200" fill="none" xmlns="http://www.w3.org/2000/svg">
<mask id="mask0_92_10037" style="mask-type:alpha" maskUnits="userSpaceOnUse" x="0" y="0" width="374" height="200">
<rect width="374" height="200" rx="25" fill="white"/>
</mask>
<g mask="url(#mask0_92_10037)">
<mask id="mask1_92_10037" style="mask-type:alpha" maskUnits="userSpaceOnUse" x="226" y="-100" width="429" height="400">
<path fill-rule="evenodd" clip-rule="evenodd" d="M404.225 -15.0704C443.072 -32.4542 453.903 -96.2269 496.355 -99.8969C527.889 -102.623 533.266 -50.5928 555.411 -28.1404C586.398 3.27856 641.963 15.8194 652.583 58.5065C662.781 99.4923 626.306 137.044 605.696 173.973C584.757 211.492 568.188 254.635 530.966 276.419C493.664 298.25 444.272 308.237 404.225 291.885C364.473 275.653 360.605 218.263 326.129 192.779C297.589 171.683 231.241 195.422 226.384 160.43C220.328 116.796 287.591 97.8741 307.492 58.5065C316.095 41.4896 298.334 19.7019 306.283 2.37483C314.359 -15.2285 330.968 -31.0548 350.148 -34.471C369.34 -37.8896 386.448 -7.11577 404.225 -15.0704Z" fill="#C4C4C4"/>
</mask>
<g mask="url(#mask1_92_10037)">
<rect x="420.916" y="-351.968" width="3.14961" height="614.173" transform="rotate(45 420.916 -351.968)" fill="#2FED3D"/>
<rect x="425.37" y="-347.514" width="3.14961" height="614.173" transform="rotate(45 425.37 -347.514)" fill="#2FED3D"/>
<rect x="429.824" y="-343.06" width="3.14961" height="614.173" transform="rotate(45 429.824 -343.06)" fill="#2FED3D"/>
<rect x="434.278" y="-338.606" width="3.14961" height="614.173" transform="rotate(45 434.278 -338.606)" fill="#2FED3D"/>
<rect x="438.732" y="-334.152" width="3.14961" height="614.173" transform="rotate(45 438.732 -334.152)" fill="#2FED3D"/>
<rect x="443.187" y="-329.697" width="3.14961" height="614.173" transform="rotate(45 443.187 -329.697)" fill="#2FED3D"/>
<rect x="447.641" y="-325.243" width="3.14961" height="614.173" transform="rotate(45 447.641 -325.243)" fill="#2FED3D"/>
<rect x="452.095" y="-320.789" width="3.14961" height="614.173" transform="rotate(45 452.095 -320.789)" fill="#2FED3D"/>
<rect x="456.549" y="-316.335" width="3.14961" height="614.173" transform="rotate(45 456.549 -316.335)" fill="#2FED3D"/>
<rect x="461.003" y="-311.88" width="3.14961" height="614.173" transform="rotate(45 461.003 -311.88)" fill="#2FED3D"/>
<rect x="465.458" y="-307.426" width="3.14961" height="614.173" transform="rotate(45 465.458 -307.426)" fill="#2FED3D"/>
<rect x="469.912" y="-302.972" width="3.14961" height="614.173" transform="rotate(45 469.912 -302.972)" fill="#2FED3D"/>
<rect x="474.366" y="-298.518" width="3.14961" height="614.173" transform="rotate(45 474.366 -298.518)" fill="#2FED3D"/>
<rect x="478.82" y="-294.064" width="3.14961" height="614.173" transform="rotate(45 478.82 -294.064)" fill="#2FED3D"/>
<rect x="483.275" y="-289.609" width="3.14961" height="614.173" transform="rotate(45 483.275 -289.609)" fill="#2FED3D"/>
<rect x="487.729" y="-285.155" width="3.14961" height="614.173" transform="rotate(45 487.729 -285.155)" fill="#2FED3D"/>
<rect x="492.183" y="-280.701" width="3.14961" height="614.173" transform="rotate(45 492.183 -280.701)" fill="#2FED3D"/>
<rect x="496.637" y="-276.247" width="3.14961" height="614.173" transform="rotate(45 496.637 -276.247)" fill="#2FED3D"/>
<rect x="501.091" y="-271.793" width="3.14961" height="614.173" transform="rotate(45 501.091 -271.793)" fill="#2FED3D"/>
<rect x="505.546" y="-267.338" width="3.14961" height="614.173" transform="rotate(45 505.546 -267.338)" fill="#2FED3D"/>
<rect x="510" y="-262.884" width="3.14961" height="614.173" transform="rotate(45 510 -262.884)" fill="#2FED3D"/>
<rect x="514.454" y="-258.43" width="3.14961" height="614.173" transform="rotate(45 514.454 -258.43)" fill="#2FED3D"/>
<rect x="518.908" y="-253.976" width="3.14961" height="614.173" transform="rotate(45 518.908 -253.976)" fill="#2FED3D"/>
<rect x="523.362" y="-249.521" width="3.14961" height="614.173" transform="rotate(45 523.362 -249.521)" fill="#2FED3D"/>
<rect x="527.817" y="-245.067" width="3.14961" height="614.173" transform="rotate(45 527.817 -245.067)" fill="#2FED3D"/>
<rect x="532.271" y="-240.613" width="3.14961" height="614.173" transform="rotate(45 532.271 -240.613)" fill="#2FED3D"/>
<rect x="536.725" y="-236.159" width="3.14961" height="614.173" transform="rotate(45 536.725 -236.159)" fill="#2FED3D"/>
<rect x="541.179" y="-231.705" width="3.14961" height="614.173" transform="rotate(45 541.179 -231.705)" fill="#2FED3D"/>
<rect x="545.634" y="-227.25" width="3.14961" height="614.173" transform="rotate(45 545.634 -227.25)" fill="#2FED3D"/>
<rect x="550.088" y="-222.796" width="3.14961" height="614.173" transform="rotate(45 550.088 -222.796)" fill="#2FED3D"/>
<rect x="554.542" y="-218.342" width="3.14961" height="614.173" transform="rotate(45 554.542 -218.342)" fill="#2FED3D"/>
<rect x="558.996" y="-213.888" width="3.14961" height="614.173" transform="rotate(45 558.996 -213.888)" fill="#2FED3D"/>
<rect x="563.451" y="-209.434" width="3.14961" height="614.173" transform="rotate(45 563.451 -209.434)" fill="#2FED3D"/>
<rect x="567.905" y="-204.979" width="3.14961" height="614.173" transform="rotate(45 567.905 -204.979)" fill="#2FED3D"/>
<rect x="572.359" y="-200.525" width="3.14961" height="614.173" transform="rotate(45 572.359 -200.525)" fill="#2FED3D"/>
<rect x="576.813" y="-196.071" width="3.14961" height="614.173" transform="rotate(45 576.813 -196.071)" fill="#2FED3D"/>
<rect x="581.268" y="-191.617" width="3.14961" height="614.173" transform="rotate(45 581.268 -191.617)" fill="#2FED3D"/>
<rect x="585.722" y="-187.162" width="3.14961" height="614.173" transform="rotate(45 585.722 -187.162)" fill="#2FED3D"/>
<rect x="590.176" y="-182.708" width="3.14961" height="614.173" transform="rotate(45 590.176 -182.708)" fill="#2FED3D"/>
<rect x="594.63" y="-178.254" width="3.14961" height="614.173" transform="rotate(45 594.63 -178.254)" fill="#2FED3D"/>
<rect x="599.084" y="-173.8" width="3.14961" height="614.173" transform="rotate(45 599.084 -173.8)" fill="#2FED3D"/>
<rect x="603.539" y="-169.346" width="3.14961" height="614.173" transform="rotate(45 603.539 -169.346)" fill="#2FED3D"/>
<rect x="607.993" y="-164.891" width="3.14961" height="614.173" transform="rotate(45 607.993 -164.891)" fill="#2FED3D"/>
<rect x="612.447" y="-160.437" width="3.14961" height="614.173" transform="rotate(45 612.447 -160.437)" fill="#2FED3D"/>
<rect x="616.901" y="-155.983" width="3.14961" height="614.173" transform="rotate(45 616.901 -155.983)" fill="#2FED3D"/>
<rect x="621.355" y="-151.529" width="3.14961" height="614.173" transform="rotate(45 621.355 -151.529)" fill="#2FED3D"/>
<rect x="625.81" y="-147.074" width="3.14961" height="614.173" transform="rotate(45 625.81 -147.074)" fill="#2FED3D"/>
<rect x="630.264" y="-142.62" width="3.14961" height="614.173" transform="rotate(45 630.264 -142.62)" fill="#2FED3D"/>
<rect x="634.718" y="-138.166" width="3.14961" height="614.173" transform="rotate(45 634.718 -138.166)" fill="#2FED3D"/>
<rect x="639.172" y="-133.712" width="3.14961" height="614.173" transform="rotate(45 639.172 -133.712)" fill="#2FED3D"/>
<rect x="643.626" y="-129.258" width="3.14961" height="614.173" transform="rotate(45 643.626 -129.258)" fill="#2FED3D"/>
<rect x="648.081" y="-124.803" width="3.14961" height="614.173" transform="rotate(45 648.081 -124.803)" fill="#2FED3D"/>
<rect x="652.535" y="-120.349" width="3.14961" height="614.173" transform="rotate(45 652.535 -120.349)" fill="#2FED3D"/>
<rect x="656.989" y="-115.895" width="3.14961" height="614.173" transform="rotate(45 656.989 -115.895)" fill="#2FED3D"/>
<rect x="661.443" y="-111.441" width="3.14961" height="614.173" transform="rotate(45 661.443 -111.441)" fill="#2FED3D"/>
<rect x="665.897" y="-106.987" width="3.14961" height="614.173" transform="rotate(45 665.897 -106.987)" fill="#2FED3D"/>
<rect x="670.352" y="-102.532" width="3.14961" height="614.173" transform="rotate(45 670.352 -102.532)" fill="#2FED3D"/>
<rect x="674.806" y="-98.0781" width="3.14961" height="614.173" transform="rotate(45 674.806 -98.0781)" fill="#2FED3D"/>
<rect x="679.26" y="-93.6238" width="3.14961" height="614.173" transform="rotate(45 679.26 -93.6238)" fill="#2FED3D"/>
<rect x="683.714" y="-89.1697" width="3.14961" height="614.173" transform="rotate(45 683.714 -89.1697)" fill="#2FED3D"/>
<rect x="688.168" y="-84.7156" width="3.14961" height="614.173" transform="rotate(45 688.168 -84.7156)" fill="#2FED3D"/>
<rect x="692.623" y="-80.2613" width="3.14961" height="614.173" transform="rotate(45 692.623 -80.2613)" fill="#2FED3D"/>
<rect x="697.077" y="-75.8071" width="3.14961" height="614.173" transform="rotate(45 697.077 -75.8071)" fill="#2FED3D"/>
<rect x="701.531" y="-71.3528" width="3.14961" height="614.173" transform="rotate(45 701.531 -71.3528)" fill="#2FED3D"/>
<rect x="705.985" y="-66.8987" width="3.14961" height="614.173" transform="rotate(45 705.985 -66.8987)" fill="#2FED3D"/>
<rect x="710.439" y="-62.4443" width="3.14961" height="614.173" transform="rotate(45 710.439 -62.4443)" fill="#2FED3D"/>
<rect x="714.894" y="-57.9902" width="3.14961" height="614.173" transform="rotate(45 714.894 -57.9902)" fill="#2FED3D"/>
<rect x="719.348" y="-53.5359" width="3.14961" height="614.173" transform="rotate(45 719.348 -53.5359)" fill="#2FED3D"/>
<rect x="723.802" y="-49.0818" width="3.14961" height="614.173" transform="rotate(45 723.802 -49.0818)" fill="#2FED3D"/>
<rect x="728.256" y="-44.6275" width="3.14961" height="614.173" transform="rotate(45 728.256 -44.6275)" fill="#2FED3D"/>
<rect x="732.711" y="-40.1734" width="3.14961" height="614.173" transform="rotate(45 732.711 -40.1734)" fill="#2FED3D"/>
<rect x="737.165" y="-35.7191" width="3.14961" height="614.173" transform="rotate(45 737.165 -35.7191)" fill="#2FED3D"/>
<rect x="741.619" y="-31.265" width="3.14961" height="614.173" transform="rotate(45 741.619 -31.265)" fill="#2FED3D"/>
<rect x="746.073" y="-26.8106" width="3.14961" height="614.173" transform="rotate(45 746.073 -26.8106)" fill="#2FED3D"/>
<rect x="750.528" y="-22.3564" width="3.14961" height="614.173" transform="rotate(45 750.528 -22.3564)" fill="#2FED3D"/>
<rect x="754.982" y="-17.9022" width="3.14961" height="614.173" transform="rotate(45 754.982 -17.9022)" fill="#2FED3D"/>
<rect x="759.436" y="-13.4481" width="3.14961" height="614.173" transform="rotate(45 759.436 -13.4481)" fill="#2FED3D"/>
<rect x="763.89" y="-8.99371" width="3.14961" height="614.173" transform="rotate(45 763.89 -8.99371)" fill="#2FED3D"/>
<rect x="768.345" y="-4.53961" width="3.14961" height="614.173" transform="rotate(45 768.345 -4.53961)" fill="#2FED3D"/>
<rect x="772.799" y="-0.0855103" width="3.14961" height="614.173" transform="rotate(45 772.799 -0.0855103)" fill="#2FED3D"/>
<rect x="777.253" y="4.36884" width="3.14961" height="614.173" transform="rotate(45 777.253 4.36884)" fill="#2FED3D"/>
<rect x="781.707" y="8.82294" width="3.14961" height="614.173" transform="rotate(45 781.707 8.82294)" fill="#2FED3D"/>
<rect x="786.161" y="13.2773" width="3.14961" height="614.173" transform="rotate(45 786.161 13.2773)" fill="#2FED3D"/>
<rect x="790.616" y="17.7314" width="3.14961" height="614.173" transform="rotate(45 790.616 17.7314)" fill="#2FED3D"/>
<rect x="795.07" y="22.1857" width="3.14961" height="614.173" transform="rotate(45 795.07 22.1857)" fill="#2FED3D"/>
<rect x="799.524" y="26.6398" width="3.14961" height="614.173" transform="rotate(45 799.524 26.6398)" fill="#2FED3D"/>
<rect x="803.978" y="31.0942" width="3.14961" height="614.173" transform="rotate(45 803.978 31.0942)" fill="#2FED3D"/>
</g>
</g>
</svg>
