<svg width="361" height="305" viewBox="0 0 361 305" fill="none" xmlns="http://www.w3.org/2000/svg">
<mask id="mask0_92_11031" style="mask-type:alpha" maskUnits="userSpaceOnUse" x="0" y="0" width="619" height="744">
<path fill-rule="evenodd" clip-rule="evenodd" d="M296.225 9.91025C365.164 60.2033 290.236 208.06 362.961 252.692C432.693 295.487 524.477 156.792 597.063 194.535C649.447 221.775 589.646 309.455 585.475 368.396C581.629 422.739 611.364 489.536 573.423 528.595C532.877 570.336 461.658 547.682 403.988 555.231C367.608 559.993 328.32 547.086 296.225 564.881C217.054 608.778 151.723 794.373 87.1345 730.911C14.2491 659.296 192.356 540.987 170.312 441.164C157.234 381.939 36.7964 421.257 7.08236 368.396C-17.6494 324.399 28.7344 271.768 49.1406 225.601C71.6023 174.783 90.6888 121.108 132.528 84.5841C178.505 44.4492 246.925 -26.0557 296.225 9.91025Z" fill="#C4C4C4"/>
</mask>
<g mask="url(#mask0_92_11031)">
<rect x="222.669" y="-311.55" width="4.65" height="906.75" transform="rotate(45 222.669 -311.55)" fill="#2F80ED"/>
<rect x="229.245" y="-304.974" width="4.65" height="906.75" transform="rotate(45 229.245 -304.974)" fill="#2F80ED"/>
<rect x="235.821" y="-298.398" width="4.65" height="906.75" transform="rotate(45 235.821 -298.398)" fill="#2F80ED"/>
<rect x="242.397" y="-291.822" width="4.65" height="906.75" transform="rotate(45 242.397 -291.822)" fill="#2F80ED"/>
<rect x="248.973" y="-285.246" width="4.65" height="906.75" transform="rotate(45 248.973 -285.246)" fill="#2F80ED"/>
<rect x="255.549" y="-278.67" width="4.65" height="906.75" transform="rotate(45 255.549 -278.67)" fill="#2F80ED"/>
<rect x="262.125" y="-272.093" width="4.65" height="906.75" transform="rotate(45 262.125 -272.093)" fill="#2F80ED"/>
<rect x="268.702" y="-265.517" width="4.65" height="906.75" transform="rotate(45 268.702 -265.517)" fill="#2F80ED"/>
<rect x="275.277" y="-258.941" width="4.65" height="906.75" transform="rotate(45 275.277 -258.941)" fill="#2F80ED"/>
<rect x="281.853" y="-252.365" width="4.65" height="906.75" transform="rotate(45 281.853 -252.365)" fill="#2F80ED"/>
<rect x="288.429" y="-245.789" width="4.65" height="906.75" transform="rotate(45 288.429 -245.789)" fill="#2F80ED"/>
<rect x="295.006" y="-239.213" width="4.65" height="906.75" transform="rotate(45 295.006 -239.213)" fill="#2F80ED"/>
<rect x="301.582" y="-232.637" width="4.65" height="906.75" transform="rotate(45 301.582 -232.637)" fill="#2F80ED"/>
<rect x="308.158" y="-226.061" width="4.65" height="906.75" transform="rotate(45 308.158 -226.061)" fill="#2F80ED"/>
<rect x="314.734" y="-219.485" width="4.65" height="906.75" transform="rotate(45 314.734 -219.485)" fill="#2F80ED"/>
<rect x="321.31" y="-212.909" width="4.65" height="906.75" transform="rotate(45 321.31 -212.909)" fill="#2F80ED"/>
<rect x="327.886" y="-206.332" width="4.65" height="906.75" transform="rotate(45 327.886 -206.332)" fill="#2F80ED"/>
<rect x="334.462" y="-199.756" width="4.65" height="906.75" transform="rotate(45 334.462 -199.756)" fill="#2F80ED"/>
<rect x="341.038" y="-193.18" width="4.65" height="906.75" transform="rotate(45 341.038 -193.18)" fill="#2F80ED"/>
<rect x="347.615" y="-186.604" width="4.65" height="906.75" transform="rotate(45 347.615 -186.604)" fill="#2F80ED"/>
<rect x="354.191" y="-180.028" width="4.65" height="906.75" transform="rotate(45 354.191 -180.028)" fill="#2F80ED"/>
<rect x="360.767" y="-173.452" width="4.65" height="906.75" transform="rotate(45 360.767 -173.452)" fill="#2F80ED"/>
<rect x="367.343" y="-166.876" width="4.65" height="906.75" transform="rotate(45 367.343 -166.876)" fill="#2F80ED"/>
<rect x="373.919" y="-160.3" width="4.65" height="906.75" transform="rotate(45 373.919 -160.3)" fill="#2F80ED"/>
<rect x="380.495" y="-153.724" width="4.65" height="906.75" transform="rotate(45 380.495 -153.724)" fill="#2F80ED"/>
<rect x="387.071" y="-147.148" width="4.65" height="906.75" transform="rotate(45 387.071 -147.148)" fill="#2F80ED"/>
<rect x="393.647" y="-140.572" width="4.65" height="906.75" transform="rotate(45 393.647 -140.572)" fill="#2F80ED"/>
<rect x="400.223" y="-133.995" width="4.65" height="906.75" transform="rotate(45 400.223 -133.995)" fill="#2F80ED"/>
<rect x="406.799" y="-127.419" width="4.65" height="906.75" transform="rotate(45 406.799 -127.419)" fill="#2F80ED"/>
<rect x="413.375" y="-120.843" width="4.65" height="906.75" transform="rotate(45 413.375 -120.843)" fill="#2F80ED"/>
<rect x="419.951" y="-114.267" width="4.65" height="906.75" transform="rotate(45 419.951 -114.267)" fill="#2F80ED"/>
<rect x="426.527" y="-107.691" width="4.65" height="906.75" transform="rotate(45 426.527 -107.691)" fill="#2F80ED"/>
<rect x="433.104" y="-101.115" width="4.65" height="906.75" transform="rotate(45 433.104 -101.115)" fill="#2F80ED"/>
<rect x="439.68" y="-94.5388" width="4.65" height="906.75" transform="rotate(45 439.68 -94.5388)" fill="#2F80ED"/>
<rect x="446.256" y="-87.9629" width="4.65" height="906.75" transform="rotate(45 446.256 -87.9629)" fill="#2F80ED"/>
<rect x="452.832" y="-81.3866" width="4.65" height="906.75" transform="rotate(45 452.832 -81.3866)" fill="#2F80ED"/>
<rect x="459.408" y="-74.8107" width="4.65" height="906.75" transform="rotate(45 459.408 -74.8107)" fill="#2F80ED"/>
<rect x="465.984" y="-68.2344" width="4.65" height="906.75" transform="rotate(45 465.984 -68.2344)" fill="#2F80ED"/>
<rect x="472.56" y="-61.6585" width="4.65" height="906.75" transform="rotate(45 472.56 -61.6585)" fill="#2F80ED"/>
<rect x="479.136" y="-55.0822" width="4.65" height="906.75" transform="rotate(45 479.136 -55.0822)" fill="#2F80ED"/>
<rect x="485.712" y="-48.5063" width="4.65" height="906.75" transform="rotate(45 485.712 -48.5063)" fill="#2F80ED"/>
<rect x="492.289" y="-41.9303" width="4.65" height="906.75" transform="rotate(45 492.289 -41.9303)" fill="#2F80ED"/>
<rect x="498.865" y="-35.3541" width="4.65" height="906.75" transform="rotate(45 498.865 -35.3541)" fill="#2F80ED"/>
<rect x="505.441" y="-28.7781" width="4.65" height="906.75" transform="rotate(45 505.441 -28.7781)" fill="#2F80ED"/>
<rect x="512.017" y="-22.2019" width="4.65" height="906.75" transform="rotate(45 512.017 -22.2019)" fill="#2F80ED"/>
<rect x="518.593" y="-15.6259" width="4.65" height="906.75" transform="rotate(45 518.593 -15.6259)" fill="#2F80ED"/>
<rect x="525.169" y="-9.04967" width="4.65" height="906.75" transform="rotate(45 525.169 -9.04967)" fill="#2F80ED"/>
<rect x="531.745" y="-2.47371" width="4.65" height="906.75" transform="rotate(45 531.745 -2.47371)" fill="#2F80ED"/>
<rect x="538.321" y="4.10254" width="4.65" height="906.75" transform="rotate(45 538.321 4.10254)" fill="#2F80ED"/>
<rect x="544.897" y="10.6785" width="4.65" height="906.75" transform="rotate(45 544.897 10.6785)" fill="#2F80ED"/>
<rect x="551.473" y="17.2547" width="4.65" height="906.75" transform="rotate(45 551.473 17.2547)" fill="#2F80ED"/>
<rect x="558.049" y="23.8307" width="4.65" height="906.75" transform="rotate(45 558.049 23.8307)" fill="#2F80ED"/>
<rect x="564.625" y="30.4069" width="4.65" height="906.75" transform="rotate(45 564.625 30.4069)" fill="#2F80ED"/>
<rect x="571.202" y="36.9829" width="4.65" height="906.75" transform="rotate(45 571.202 36.9829)" fill="#2F80ED"/>
<rect x="577.778" y="43.5591" width="4.65" height="906.75" transform="rotate(45 577.778 43.5591)" fill="#2F80ED"/>
<rect x="584.354" y="50.1351" width="4.65" height="906.75" transform="rotate(45 584.354 50.1351)" fill="#2F80ED"/>
<rect x="590.93" y="56.7113" width="4.65" height="906.75" transform="rotate(45 590.93 56.7113)" fill="#2F80ED"/>
<rect x="597.506" y="63.2873" width="4.65" height="906.75" transform="rotate(45 597.506 63.2873)" fill="#2F80ED"/>
<rect x="604.082" y="69.8635" width="4.65" height="906.75" transform="rotate(45 604.082 69.8635)" fill="#2F80ED"/>
<rect x="610.658" y="76.4395" width="4.65" height="906.75" transform="rotate(45 610.658 76.4395)" fill="#2F80ED"/>
<rect x="617.234" y="83.0154" width="4.65" height="906.75" transform="rotate(45 617.234 83.0154)" fill="#2F80ED"/>
<rect x="623.81" y="89.5917" width="4.65" height="906.75" transform="rotate(45 623.81 89.5917)" fill="#2F80ED"/>
<rect x="630.387" y="96.1676" width="4.65" height="906.75" transform="rotate(45 630.387 96.1676)" fill="#2F80ED"/>
<rect x="636.963" y="102.744" width="4.65" height="906.75" transform="rotate(45 636.963 102.744)" fill="#2F80ED"/>
<rect x="643.539" y="109.32" width="4.65" height="906.75" transform="rotate(45 643.539 109.32)" fill="#2F80ED"/>
<rect x="650.114" y="115.896" width="4.65" height="906.75" transform="rotate(45 650.114 115.896)" fill="#2F80ED"/>
<rect x="656.691" y="122.472" width="4.65" height="906.75" transform="rotate(45 656.691 122.472)" fill="#2F80ED"/>
<rect x="663.267" y="129.048" width="4.65" height="906.75" transform="rotate(45 663.267 129.048)" fill="#2F80ED"/>
<rect x="669.843" y="135.624" width="4.65" height="906.75" transform="rotate(45 669.843 135.624)" fill="#2F80ED"/>
<rect x="676.419" y="142.2" width="4.65" height="906.75" transform="rotate(45 676.419 142.2)" fill="#2F80ED"/>
<rect x="682.995" y="148.776" width="4.65" height="906.75" transform="rotate(45 682.995 148.776)" fill="#2F80ED"/>
<rect x="689.571" y="155.353" width="4.65" height="906.75" transform="rotate(45 689.571 155.353)" fill="#2F80ED"/>
<rect x="696.147" y="161.929" width="4.65" height="906.75" transform="rotate(45 696.147 161.929)" fill="#2F80ED"/>
<rect x="702.723" y="168.505" width="4.65" height="906.75" transform="rotate(45 702.723 168.505)" fill="#2F80ED"/>
<rect x="709.3" y="175.081" width="4.65" height="906.75" transform="rotate(45 709.3 175.081)" fill="#2F80ED"/>
<rect x="715.876" y="181.657" width="4.65" height="906.75" transform="rotate(45 715.876 181.657)" fill="#2F80ED"/>
<rect x="722.452" y="188.233" width="4.65" height="906.75" transform="rotate(45 722.452 188.233)" fill="#2F80ED"/>
<rect x="729.028" y="194.809" width="4.65" height="906.75" transform="rotate(45 729.028 194.809)" fill="#2F80ED"/>
<rect x="735.604" y="201.385" width="4.65" height="906.75" transform="rotate(45 735.604 201.385)" fill="#2F80ED"/>
<rect x="742.18" y="207.961" width="4.65" height="906.75" transform="rotate(45 742.18 207.961)" fill="#2F80ED"/>
<rect x="748.756" y="214.537" width="4.65" height="906.75" transform="rotate(45 748.756 214.537)" fill="#2F80ED"/>
<rect x="755.332" y="221.113" width="4.65" height="906.75" transform="rotate(45 755.332 221.113)" fill="#2F80ED"/>
<rect x="761.908" y="227.69" width="4.65" height="906.75" transform="rotate(45 761.908 227.69)" fill="#2F80ED"/>
<rect x="768.485" y="234.266" width="4.65" height="906.75" transform="rotate(45 768.485 234.266)" fill="#2F80ED"/>
<rect x="775.06" y="240.842" width="4.65" height="906.75" transform="rotate(45 775.06 240.842)" fill="#2F80ED"/>
<rect x="781.636" y="247.418" width="4.65" height="906.75" transform="rotate(45 781.636 247.418)" fill="#2F80ED"/>
<rect x="788.212" y="253.994" width="4.65" height="906.75" transform="rotate(45 788.212 253.994)" fill="#2F80ED"/>
<rect x="794.789" y="260.57" width="4.65" height="906.75" transform="rotate(45 794.789 260.57)" fill="#2F80ED"/>
<rect x="801.365" y="267.146" width="4.65" height="906.75" transform="rotate(45 801.365 267.146)" fill="#2F80ED"/>
<rect x="807.941" y="273.722" width="4.65" height="906.75" transform="rotate(45 807.941 273.722)" fill="#2F80ED"/>
<rect x="814.517" y="280.298" width="4.65" height="906.75" transform="rotate(45 814.517 280.298)" fill="#2F80ED"/>
<rect x="821.093" y="286.874" width="4.65" height="906.75" transform="rotate(45 821.093 286.874)" fill="#2F80ED"/>
<rect x="827.669" y="293.451" width="4.65" height="906.75" transform="rotate(45 827.669 293.451)" fill="#2F80ED"/>
<rect x="834.245" y="300.027" width="4.65" height="906.75" transform="rotate(45 834.245 300.027)" fill="#2F80ED"/>
</g>
</svg>
