<svg width="559" height="200" viewBox="0 0 559 200" fill="none" xmlns="http://www.w3.org/2000/svg">
<mask id="mask0_92_10783" style="mask-type:alpha" maskUnits="userSpaceOnUse" x="0" y="0" width="559" height="200">
<rect width="559" height="200" rx="25" fill="white"/>
</mask>
<g mask="url(#mask0_92_10783)">
<mask id="mask1_92_10783" style="mask-type:alpha" maskUnits="userSpaceOnUse" x="364" y="-75" width="390" height="400">
<path fill-rule="evenodd" clip-rule="evenodd" d="M527.082 24.6726C539.536 37.7755 536.235 68.0331 554.15 70.5701C589.652 75.5974 621.328 34.6465 656.205 42.9573C695.859 52.4066 770.315 81.7895 750.523 117.364C723.915 165.191 643.565 133.352 593.512 155.645C579.315 161.968 578.789 182.152 572.855 196.494C556.239 236.655 563.716 292.73 527.082 316.205C497.643 335.07 439.745 322.374 427.391 289.706C410.365 244.682 479.94 198.807 465.341 152.943C455.134 120.873 392.416 144.541 372.537 117.364C355.013 93.407 368.852 58.8791 375.366 29.9378C383.738 -7.25397 377.661 -73.6403 415.829 -74.9649C466.487 -76.7229 492.197 -12.0319 527.082 24.6726Z" fill="#C4C4C4"/>
</mask>
<g mask="url(#mask1_92_10783)">
<rect x="491.097" y="-266.501" width="2.54777" height="496.815" transform="rotate(45 491.097 -266.501)" fill="#ED2FDF"/>
<rect x="494.7" y="-262.897" width="2.54777" height="496.815" transform="rotate(45 494.7 -262.897)" fill="#ED2FDF"/>
<rect x="498.303" y="-259.294" width="2.54777" height="496.815" transform="rotate(45 498.303 -259.294)" fill="#ED2FDF"/>
<rect x="501.907" y="-255.691" width="2.54777" height="496.815" transform="rotate(45 501.907 -255.691)" fill="#ED2FDF"/>
<rect x="505.51" y="-252.088" width="2.54777" height="496.815" transform="rotate(45 505.51 -252.088)" fill="#ED2FDF"/>
<rect x="509.113" y="-248.485" width="2.54777" height="496.815" transform="rotate(45 509.113 -248.485)" fill="#ED2FDF"/>
<rect x="512.716" y="-244.882" width="2.54777" height="496.815" transform="rotate(45 512.716 -244.882)" fill="#ED2FDF"/>
<rect x="516.319" y="-241.279" width="2.54777" height="496.815" transform="rotate(45 516.319 -241.279)" fill="#ED2FDF"/>
<rect x="519.922" y="-237.676" width="2.54777" height="496.815" transform="rotate(45 519.922 -237.676)" fill="#ED2FDF"/>
<rect x="523.525" y="-234.073" width="2.54777" height="496.815" transform="rotate(45 523.525 -234.073)" fill="#ED2FDF"/>
<rect x="527.128" y="-230.47" width="2.54777" height="496.815" transform="rotate(45 527.128 -230.47)" fill="#ED2FDF"/>
<rect x="530.732" y="-226.867" width="2.54777" height="496.815" transform="rotate(45 530.732 -226.867)" fill="#ED2FDF"/>
<rect x="534.335" y="-223.263" width="2.54777" height="496.815" transform="rotate(45 534.335 -223.263)" fill="#ED2FDF"/>
<rect x="537.938" y="-219.66" width="2.54777" height="496.815" transform="rotate(45 537.938 -219.66)" fill="#ED2FDF"/>
<rect x="541.541" y="-216.057" width="2.54777" height="496.815" transform="rotate(45 541.541 -216.057)" fill="#ED2FDF"/>
<rect x="545.144" y="-212.454" width="2.54777" height="496.815" transform="rotate(45 545.144 -212.454)" fill="#ED2FDF"/>
<rect x="548.747" y="-208.851" width="2.54777" height="496.815" transform="rotate(45 548.747 -208.851)" fill="#ED2FDF"/>
<rect x="552.35" y="-205.248" width="2.54777" height="496.815" transform="rotate(45 552.35 -205.248)" fill="#ED2FDF"/>
<rect x="555.953" y="-201.645" width="2.54777" height="496.815" transform="rotate(45 555.953 -201.645)" fill="#ED2FDF"/>
<rect x="559.556" y="-198.042" width="2.54777" height="496.815" transform="rotate(45 559.556 -198.042)" fill="#ED2FDF"/>
<rect x="563.159" y="-194.439" width="2.54777" height="496.815" transform="rotate(45 563.159 -194.439)" fill="#ED2FDF"/>
<rect x="566.762" y="-190.836" width="2.54777" height="496.815" transform="rotate(45 566.762 -190.836)" fill="#ED2FDF"/>
<rect x="570.365" y="-187.233" width="2.54777" height="496.815" transform="rotate(45 570.365 -187.233)" fill="#ED2FDF"/>
<rect x="573.968" y="-183.629" width="2.54777" height="496.815" transform="rotate(45 573.968 -183.629)" fill="#ED2FDF"/>
<rect x="577.572" y="-180.026" width="2.54777" height="496.815" transform="rotate(45 577.572 -180.026)" fill="#ED2FDF"/>
<rect x="581.175" y="-176.423" width="2.54777" height="496.815" transform="rotate(45 581.175 -176.423)" fill="#ED2FDF"/>
<rect x="584.778" y="-172.82" width="2.54777" height="496.815" transform="rotate(45 584.778 -172.82)" fill="#ED2FDF"/>
<rect x="588.381" y="-169.217" width="2.54777" height="496.815" transform="rotate(45 588.381 -169.217)" fill="#ED2FDF"/>
<rect x="591.984" y="-165.614" width="2.54777" height="496.815" transform="rotate(45 591.984 -165.614)" fill="#ED2FDF"/>
<rect x="595.587" y="-162.011" width="2.54777" height="496.815" transform="rotate(45 595.587 -162.011)" fill="#ED2FDF"/>
<rect x="599.19" y="-158.408" width="2.54777" height="496.815" transform="rotate(45 599.19 -158.408)" fill="#ED2FDF"/>
<rect x="602.793" y="-154.805" width="2.54777" height="496.815" transform="rotate(45 602.793 -154.805)" fill="#ED2FDF"/>
<rect x="606.396" y="-151.202" width="2.54777" height="496.815" transform="rotate(45 606.396 -151.202)" fill="#ED2FDF"/>
<rect x="609.999" y="-147.599" width="2.54777" height="496.815" transform="rotate(45 609.999 -147.599)" fill="#ED2FDF"/>
<rect x="613.602" y="-143.995" width="2.54777" height="496.815" transform="rotate(45 613.602 -143.995)" fill="#ED2FDF"/>
<rect x="617.206" y="-140.392" width="2.54777" height="496.815" transform="rotate(45 617.206 -140.392)" fill="#ED2FDF"/>
<rect x="620.809" y="-136.789" width="2.54777" height="496.815" transform="rotate(45 620.809 -136.789)" fill="#ED2FDF"/>
<rect x="624.412" y="-133.186" width="2.54777" height="496.815" transform="rotate(45 624.412 -133.186)" fill="#ED2FDF"/>
<rect x="628.015" y="-129.583" width="2.54777" height="496.815" transform="rotate(45 628.015 -129.583)" fill="#ED2FDF"/>
<rect x="631.618" y="-125.98" width="2.54777" height="496.815" transform="rotate(45 631.618 -125.98)" fill="#ED2FDF"/>
<rect x="635.221" y="-122.377" width="2.54777" height="496.815" transform="rotate(45 635.221 -122.377)" fill="#ED2FDF"/>
<rect x="638.824" y="-118.774" width="2.54777" height="496.815" transform="rotate(45 638.824 -118.774)" fill="#ED2FDF"/>
<rect x="642.427" y="-115.171" width="2.54777" height="496.815" transform="rotate(45 642.427 -115.171)" fill="#ED2FDF"/>
<rect x="646.03" y="-111.568" width="2.54777" height="496.815" transform="rotate(45 646.03 -111.568)" fill="#ED2FDF"/>
<rect x="649.633" y="-107.964" width="2.54777" height="496.815" transform="rotate(45 649.633 -107.964)" fill="#ED2FDF"/>
<rect x="653.237" y="-104.361" width="2.54777" height="496.815" transform="rotate(45 653.237 -104.361)" fill="#ED2FDF"/>
<rect x="656.84" y="-100.758" width="2.54777" height="496.815" transform="rotate(45 656.84 -100.758)" fill="#ED2FDF"/>
<rect x="660.443" y="-97.1552" width="2.54777" height="496.815" transform="rotate(45 660.443 -97.1552)" fill="#ED2FDF"/>
<rect x="664.046" y="-93.5521" width="2.54777" height="496.815" transform="rotate(45 664.046 -93.5521)" fill="#ED2FDF"/>
<rect x="667.649" y="-89.949" width="2.54777" height="496.815" transform="rotate(45 667.649 -89.949)" fill="#ED2FDF"/>
<rect x="671.252" y="-86.346" width="2.54777" height="496.815" transform="rotate(45 671.252 -86.346)" fill="#ED2FDF"/>
<rect x="674.855" y="-82.7429" width="2.54777" height="496.815" transform="rotate(45 674.855 -82.7429)" fill="#ED2FDF"/>
<rect x="678.458" y="-79.1398" width="2.54777" height="496.815" transform="rotate(45 678.458 -79.1398)" fill="#ED2FDF"/>
<rect x="682.061" y="-75.5367" width="2.54777" height="496.815" transform="rotate(45 682.061 -75.5367)" fill="#ED2FDF"/>
<rect x="685.664" y="-71.9336" width="2.54777" height="496.815" transform="rotate(45 685.664 -71.9336)" fill="#ED2FDF"/>
<rect x="689.267" y="-68.3305" width="2.54777" height="496.815" transform="rotate(45 689.267 -68.3305)" fill="#ED2FDF"/>
<rect x="692.87" y="-64.7274" width="2.54777" height="496.815" transform="rotate(45 692.87 -64.7274)" fill="#ED2FDF"/>
<rect x="696.474" y="-61.1243" width="2.54777" height="496.815" transform="rotate(45 696.474 -61.1243)" fill="#ED2FDF"/>
<rect x="700.077" y="-57.5212" width="2.54777" height="496.815" transform="rotate(45 700.077 -57.5212)" fill="#ED2FDF"/>
<rect x="703.68" y="-53.9181" width="2.54777" height="496.815" transform="rotate(45 703.68 -53.9181)" fill="#ED2FDF"/>
<rect x="707.283" y="-50.315" width="2.54777" height="496.815" transform="rotate(45 707.283 -50.315)" fill="#ED2FDF"/>
<rect x="710.886" y="-46.7119" width="2.54777" height="496.815" transform="rotate(45 710.886 -46.7119)" fill="#ED2FDF"/>
<rect x="714.489" y="-43.1089" width="2.54777" height="496.815" transform="rotate(45 714.489 -43.1089)" fill="#ED2FDF"/>
<rect x="718.092" y="-39.5058" width="2.54777" height="496.815" transform="rotate(45 718.092 -39.5058)" fill="#ED2FDF"/>
<rect x="721.695" y="-35.9027" width="2.54777" height="496.815" transform="rotate(45 721.695 -35.9027)" fill="#ED2FDF"/>
<rect x="725.298" y="-32.2996" width="2.54777" height="496.815" transform="rotate(45 725.298 -32.2996)" fill="#ED2FDF"/>
<rect x="728.902" y="-28.6965" width="2.54777" height="496.815" transform="rotate(45 728.902 -28.6965)" fill="#ED2FDF"/>
<rect x="732.505" y="-25.0934" width="2.54777" height="496.815" transform="rotate(45 732.505 -25.0934)" fill="#ED2FDF"/>
<rect x="736.108" y="-21.4903" width="2.54777" height="496.815" transform="rotate(45 736.108 -21.4903)" fill="#ED2FDF"/>
<rect x="739.711" y="-17.8873" width="2.54777" height="496.815" transform="rotate(45 739.711 -17.8873)" fill="#ED2FDF"/>
<rect x="743.314" y="-14.2841" width="2.54777" height="496.815" transform="rotate(45 743.314 -14.2841)" fill="#ED2FDF"/>
<rect x="746.917" y="-10.6811" width="2.54777" height="496.815" transform="rotate(45 746.917 -10.6811)" fill="#ED2FDF"/>
<rect x="750.52" y="-7.07797" width="2.54777" height="496.815" transform="rotate(45 750.52 -7.07797)" fill="#ED2FDF"/>
<rect x="754.123" y="-3.47485" width="2.54777" height="496.815" transform="rotate(45 754.123 -3.47485)" fill="#ED2FDF"/>
<rect x="757.726" y="0.128235" width="2.54777" height="496.815" transform="rotate(45 757.726 0.128235)" fill="#ED2FDF"/>
<rect x="761.329" y="3.73132" width="2.54777" height="496.815" transform="rotate(45 761.329 3.73132)" fill="#ED2FDF"/>
<rect x="764.932" y="7.33441" width="2.54777" height="496.815" transform="rotate(45 764.932 7.33441)" fill="#ED2FDF"/>
<rect x="768.535" y="10.9375" width="2.54777" height="496.815" transform="rotate(45 768.535 10.9375)" fill="#ED2FDF"/>
<rect x="772.139" y="14.5406" width="2.54777" height="496.815" transform="rotate(45 772.139 14.5406)" fill="#ED2FDF"/>
<rect x="775.742" y="18.1437" width="2.54777" height="496.815" transform="rotate(45 775.742 18.1437)" fill="#ED2FDF"/>
<rect x="779.345" y="21.7468" width="2.54777" height="496.815" transform="rotate(45 779.345 21.7468)" fill="#ED2FDF"/>
<rect x="782.948" y="25.3499" width="2.54777" height="496.815" transform="rotate(45 782.948 25.3499)" fill="#ED2FDF"/>
<rect x="786.551" y="28.953" width="2.54777" height="496.815" transform="rotate(45 786.551 28.953)" fill="#ED2FDF"/>
<rect x="790.154" y="32.5561" width="2.54777" height="496.815" transform="rotate(45 790.154 32.5561)" fill="#ED2FDF"/>
<rect x="793.757" y="36.1592" width="2.54777" height="496.815" transform="rotate(45 793.757 36.1592)" fill="#ED2FDF"/>
<rect x="797.36" y="39.7623" width="2.54777" height="496.815" transform="rotate(45 797.36 39.7623)" fill="#ED2FDF"/>
<rect x="800.963" y="43.3654" width="2.54777" height="496.815" transform="rotate(45 800.963 43.3654)" fill="#ED2FDF"/>
<rect x="804.566" y="46.9685" width="2.54777" height="496.815" transform="rotate(45 804.566 46.9685)" fill="#ED2FDF"/>
<rect x="808.169" y="50.5716" width="2.54777" height="496.815" transform="rotate(45 808.169 50.5716)" fill="#ED2FDF"/>
<rect x="811.773" y="54.1746" width="2.54777" height="496.815" transform="rotate(45 811.773 54.1746)" fill="#ED2FDF"/>
<rect x="815.376" y="57.7777" width="2.54777" height="496.815" transform="rotate(45 815.376 57.7777)" fill="#ED2FDF"/>
<rect x="818.979" y="61.3808" width="2.54777" height="496.815" transform="rotate(45 818.979 61.3808)" fill="#ED2FDF"/>
<rect x="822.582" y="64.9839" width="2.54777" height="496.815" transform="rotate(45 822.582 64.9839)" fill="#ED2FDF"/>
<rect x="826.185" y="68.587" width="2.54777" height="496.815" transform="rotate(45 826.185 68.587)" fill="#ED2FDF"/>
<rect x="829.788" y="72.1901" width="2.54777" height="496.815" transform="rotate(45 829.788 72.1901)" fill="#ED2FDF"/>
<rect x="833.391" y="75.7932" width="2.54777" height="496.815" transform="rotate(45 833.391 75.7932)" fill="#ED2FDF"/>
<rect x="836.994" y="79.3962" width="2.54777" height="496.815" transform="rotate(45 836.994 79.3962)" fill="#ED2FDF"/>
<rect x="840.597" y="82.9994" width="2.54777" height="496.815" transform="rotate(45 840.597 82.9994)" fill="#ED2FDF"/>
<rect x="844.2" y="86.6024" width="2.54777" height="496.815" transform="rotate(45 844.2 86.6024)" fill="#ED2FDF"/>
<rect x="847.803" y="90.2055" width="2.54777" height="496.815" transform="rotate(45 847.803 90.2055)" fill="#ED2FDF"/>
<rect x="851.407" y="93.8087" width="2.54777" height="496.815" transform="rotate(45 851.407 93.8087)" fill="#ED2FDF"/>
<rect x="855.01" y="97.4117" width="2.54777" height="496.815" transform="rotate(45 855.01 97.4117)" fill="#ED2FDF"/>
<rect x="858.613" y="101.015" width="2.54777" height="496.815" transform="rotate(45 858.613 101.015)" fill="#ED2FDF"/>
<rect x="862.216" y="104.618" width="2.54777" height="496.815" transform="rotate(45 862.216 104.618)" fill="#ED2FDF"/>
<rect x="865.819" y="108.221" width="2.54777" height="496.815" transform="rotate(45 865.819 108.221)" fill="#ED2FDF"/>
<rect x="869.422" y="111.824" width="2.54777" height="496.815" transform="rotate(45 869.422 111.824)" fill="#ED2FDF"/>
<rect x="873.025" y="115.427" width="2.54777" height="496.815" transform="rotate(45 873.025 115.427)" fill="#ED2FDF"/>
<rect x="876.628" y="119.03" width="2.54777" height="496.815" transform="rotate(45 876.628 119.03)" fill="#ED2FDF"/>
<rect x="880.231" y="122.633" width="2.54777" height="496.815" transform="rotate(45 880.231 122.633)" fill="#ED2FDF"/>
</g>
</g>
</svg>
