<svg width="353" height="200" viewBox="0 0 353 200" fill="none" xmlns="http://www.w3.org/2000/svg">
<mask id="mask0_92_9787" style="mask-type:alpha" maskUnits="userSpaceOnUse" x="0" y="0" width="353" height="200">
<rect width="353" height="200" rx="25" fill="white"/>
</mask>
<g mask="url(#mask0_92_9787)">
<mask id="mask1_92_9787" style="mask-type:alpha" maskUnits="userSpaceOnUse" x="226" y="-75" width="362" height="378">
<path fill-rule="evenodd" clip-rule="evenodd" d="M503.539 259.228C476.78 269.113 447.308 254.364 419.545 260.862C391.538 267.416 371.244 293.566 342.685 296.874C306.715 301.04 258.114 311.338 237.068 281.998C214.912 251.11 230.775 202.268 252.126 170.627C271.664 141.673 342.321 158.596 343.841 123.769C346.115 71.6615 259.343 47.5079 259.775 -4.63905C260.077 -41.1047 314.58 -89.3465 345.447 -70.0497C394.328 -39.4911 351.821 75.0113 408.039 88.0509C470.278 102.487 500.687 -31.6478 563.421 -19.4911C608.745 -10.7081 514.544 63.7638 519.55 109.66C523.674 147.48 591.293 161.048 587.239 198.913C583.523 233.634 536.338 247.112 503.539 259.228Z" fill="#C4C4C4"/>
</mask>
<g mask="url(#mask1_92_9787)">
<rect x="353.941" y="445.071" width="2.7027" height="527.027" transform="rotate(-135 353.941 445.071)" fill="#2F80ED"/>
<rect x="350.119" y="441.249" width="2.7027" height="527.027" transform="rotate(-135 350.119 441.249)" fill="#2F80ED"/>
<rect x="346.296" y="437.426" width="2.7027" height="527.027" transform="rotate(-135 346.296 437.426)" fill="#2F80ED"/>
<rect x="342.474" y="433.604" width="2.7027" height="527.027" transform="rotate(-135 342.474 433.604)" fill="#2F80ED"/>
<rect x="338.652" y="429.782" width="2.7027" height="527.027" transform="rotate(-135 338.652 429.782)" fill="#2F80ED"/>
<rect x="334.83" y="425.96" width="2.7027" height="527.027" transform="rotate(-135 334.83 425.96)" fill="#2F80ED"/>
<rect x="331.008" y="422.138" width="2.7027" height="527.027" transform="rotate(-135 331.008 422.138)" fill="#2F80ED"/>
<rect x="327.186" y="418.315" width="2.7027" height="527.027" transform="rotate(-135 327.186 418.315)" fill="#2F80ED"/>
<rect x="323.363" y="414.493" width="2.7027" height="527.027" transform="rotate(-135 323.363 414.493)" fill="#2F80ED"/>
<rect x="319.541" y="410.671" width="2.7027" height="527.027" transform="rotate(-135 319.541 410.671)" fill="#2F80ED"/>
<rect x="315.719" y="406.849" width="2.7027" height="527.027" transform="rotate(-135 315.719 406.849)" fill="#2F80ED"/>
<rect x="311.897" y="403.027" width="2.7027" height="527.027" transform="rotate(-135 311.897 403.027)" fill="#2F80ED"/>
<rect x="308.074" y="399.204" width="2.7027" height="527.027" transform="rotate(-135 308.074 399.204)" fill="#2F80ED"/>
<rect x="304.252" y="395.382" width="2.7027" height="527.027" transform="rotate(-135 304.252 395.382)" fill="#2F80ED"/>
<rect x="300.43" y="391.56" width="2.7027" height="527.027" transform="rotate(-135 300.43 391.56)" fill="#2F80ED"/>
<rect x="296.608" y="387.738" width="2.7027" height="527.027" transform="rotate(-135 296.608 387.738)" fill="#2F80ED"/>
<rect x="292.785" y="383.916" width="2.7027" height="527.027" transform="rotate(-135 292.785 383.916)" fill="#2F80ED"/>
<rect x="288.963" y="380.093" width="2.7027" height="527.027" transform="rotate(-135 288.963 380.093)" fill="#2F80ED"/>
<rect x="285.141" y="376.271" width="2.7027" height="527.027" transform="rotate(-135 285.141 376.271)" fill="#2F80ED"/>
<rect x="281.319" y="372.449" width="2.7027" height="527.027" transform="rotate(-135 281.319 372.449)" fill="#2F80ED"/>
<rect x="277.497" y="368.627" width="2.7027" height="527.027" transform="rotate(-135 277.497 368.627)" fill="#2F80ED"/>
<rect x="273.674" y="364.805" width="2.7027" height="527.027" transform="rotate(-135 273.674 364.805)" fill="#2F80ED"/>
<rect x="269.852" y="360.982" width="2.7027" height="527.027" transform="rotate(-135 269.852 360.982)" fill="#2F80ED"/>
<rect x="266.03" y="357.16" width="2.7027" height="527.027" transform="rotate(-135 266.03 357.16)" fill="#2F80ED"/>
<rect x="262.208" y="353.338" width="2.7027" height="527.027" transform="rotate(-135 262.208 353.338)" fill="#2F80ED"/>
<rect x="258.386" y="349.516" width="2.7027" height="527.027" transform="rotate(-135 258.386 349.516)" fill="#2F80ED"/>
<rect x="254.564" y="345.694" width="2.7027" height="527.027" transform="rotate(-135 254.564 345.694)" fill="#2F80ED"/>
<rect x="250.741" y="341.871" width="2.7027" height="527.027" transform="rotate(-135 250.741 341.871)" fill="#2F80ED"/>
<rect x="246.919" y="338.049" width="2.7027" height="527.027" transform="rotate(-135 246.919 338.049)" fill="#2F80ED"/>
<rect x="243.097" y="334.227" width="2.7027" height="527.027" transform="rotate(-135 243.097 334.227)" fill="#2F80ED"/>
<rect x="239.275" y="330.405" width="2.7027" height="527.027" transform="rotate(-135 239.275 330.405)" fill="#2F80ED"/>
<rect x="235.453" y="326.583" width="2.7027" height="527.027" transform="rotate(-135 235.453 326.583)" fill="#2F80ED"/>
<rect x="231.63" y="322.76" width="2.7027" height="527.027" transform="rotate(-135 231.63 322.76)" fill="#2F80ED"/>
<rect x="227.808" y="318.938" width="2.7027" height="527.027" transform="rotate(-135 227.808 318.938)" fill="#2F80ED"/>
<rect x="223.986" y="315.116" width="2.7027" height="527.027" transform="rotate(-135 223.986 315.116)" fill="#2F80ED"/>
<rect x="220.164" y="311.294" width="2.7027" height="527.027" transform="rotate(-135 220.164 311.294)" fill="#2F80ED"/>
<rect x="216.342" y="307.472" width="2.7027" height="527.027" transform="rotate(-135 216.342 307.472)" fill="#2F80ED"/>
<rect x="212.519" y="303.649" width="2.7027" height="527.027" transform="rotate(-135 212.519 303.649)" fill="#2F80ED"/>
<rect x="208.697" y="299.827" width="2.7027" height="527.027" transform="rotate(-135 208.697 299.827)" fill="#2F80ED"/>
<rect x="204.875" y="296.005" width="2.7027" height="527.027" transform="rotate(-135 204.875 296.005)" fill="#2F80ED"/>
<rect x="201.053" y="292.183" width="2.7027" height="527.027" transform="rotate(-135 201.053 292.183)" fill="#2F80ED"/>
<rect x="197.23" y="288.361" width="2.7027" height="527.027" transform="rotate(-135 197.23 288.361)" fill="#2F80ED"/>
<rect x="193.408" y="284.538" width="2.7027" height="527.027" transform="rotate(-135 193.408 284.538)" fill="#2F80ED"/>
<rect x="189.586" y="280.716" width="2.7027" height="527.027" transform="rotate(-135 189.586 280.716)" fill="#2F80ED"/>
<rect x="185.764" y="276.894" width="2.7027" height="527.027" transform="rotate(-135 185.764 276.894)" fill="#2F80ED"/>
<rect x="181.942" y="273.072" width="2.7027" height="527.027" transform="rotate(-135 181.942 273.072)" fill="#2F80ED"/>
<rect x="178.12" y="269.25" width="2.7027" height="527.027" transform="rotate(-135 178.12 269.25)" fill="#2F80ED"/>
<rect x="174.297" y="265.427" width="2.7027" height="527.027" transform="rotate(-135 174.297 265.427)" fill="#2F80ED"/>
<rect x="170.475" y="261.605" width="2.7027" height="527.027" transform="rotate(-135 170.475 261.605)" fill="#2F80ED"/>
<rect x="166.653" y="257.783" width="2.7027" height="527.027" transform="rotate(-135 166.653 257.783)" fill="#2F80ED"/>
<rect x="162.831" y="253.961" width="2.7027" height="527.027" transform="rotate(-135 162.831 253.961)" fill="#2F80ED"/>
<rect x="159.009" y="250.139" width="2.7027" height="527.027" transform="rotate(-135 159.009 250.139)" fill="#2F80ED"/>
<rect x="155.186" y="246.316" width="2.7027" height="527.027" transform="rotate(-135 155.186 246.316)" fill="#2F80ED"/>
<rect x="151.364" y="242.494" width="2.7027" height="527.027" transform="rotate(-135 151.364 242.494)" fill="#2F80ED"/>
<rect x="147.542" y="238.672" width="2.7027" height="527.027" transform="rotate(-135 147.542 238.672)" fill="#2F80ED"/>
<rect x="143.72" y="234.85" width="2.7027" height="527.027" transform="rotate(-135 143.72 234.85)" fill="#2F80ED"/>
<rect x="139.898" y="231.028" width="2.7027" height="527.027" transform="rotate(-135 139.898 231.028)" fill="#2F80ED"/>
<rect x="136.076" y="227.205" width="2.7027" height="527.027" transform="rotate(-135 136.076 227.205)" fill="#2F80ED"/>
<rect x="132.253" y="223.383" width="2.7027" height="527.027" transform="rotate(-135 132.253 223.383)" fill="#2F80ED"/>
<rect x="128.431" y="219.561" width="2.7027" height="527.027" transform="rotate(-135 128.431 219.561)" fill="#2F80ED"/>
<rect x="124.609" y="215.739" width="2.7027" height="527.027" transform="rotate(-135 124.609 215.739)" fill="#2F80ED"/>
<rect x="120.787" y="211.917" width="2.7027" height="527.027" transform="rotate(-135 120.787 211.917)" fill="#2F80ED"/>
<rect x="116.964" y="208.094" width="2.7027" height="527.027" transform="rotate(-135 116.964 208.094)" fill="#2F80ED"/>
<rect x="113.142" y="204.272" width="2.7027" height="527.027" transform="rotate(-135 113.142 204.272)" fill="#2F80ED"/>
<rect x="109.32" y="200.45" width="2.7027" height="527.027" transform="rotate(-135 109.32 200.45)" fill="#2F80ED"/>
<rect x="105.498" y="196.628" width="2.7027" height="527.027" transform="rotate(-135 105.498 196.628)" fill="#2F80ED"/>
<rect x="101.676" y="192.806" width="2.7027" height="527.027" transform="rotate(-135 101.676 192.806)" fill="#2F80ED"/>
<rect x="97.8533" y="188.984" width="2.7027" height="527.027" transform="rotate(-135 97.8533 188.984)" fill="#2F80ED"/>
<rect x="94.0312" y="185.161" width="2.7027" height="527.027" transform="rotate(-135 94.0312 185.161)" fill="#2F80ED"/>
<rect x="90.2091" y="181.339" width="2.7027" height="527.027" transform="rotate(-135 90.2091 181.339)" fill="#2F80ED"/>
<rect x="86.3869" y="177.517" width="2.7027" height="527.027" transform="rotate(-135 86.3869 177.517)" fill="#2F80ED"/>
<rect x="82.5645" y="173.695" width="2.7027" height="527.027" transform="rotate(-135 82.5645 173.695)" fill="#2F80ED"/>
<rect x="78.7424" y="169.872" width="2.7027" height="527.027" transform="rotate(-135 78.7424 169.872)" fill="#2F80ED"/>
<rect x="74.9202" y="166.05" width="2.7027" height="527.027" transform="rotate(-135 74.9202 166.05)" fill="#2F80ED"/>
<rect x="71.0981" y="162.228" width="2.7027" height="527.027" transform="rotate(-135 71.0981 162.228)" fill="#2F80ED"/>
<rect x="67.2757" y="158.406" width="2.7027" height="527.027" transform="rotate(-135 67.2757 158.406)" fill="#2F80ED"/>
<rect x="63.4536" y="154.584" width="2.7027" height="527.027" transform="rotate(-135 63.4536 154.584)" fill="#2F80ED"/>
<rect x="59.6314" y="150.761" width="2.7027" height="527.027" transform="rotate(-135 59.6314 150.761)" fill="#2F80ED"/>
<rect x="55.8093" y="146.939" width="2.7027" height="527.027" transform="rotate(-135 55.8093 146.939)" fill="#2F80ED"/>
<rect x="51.9869" y="143.117" width="2.7027" height="527.027" transform="rotate(-135 51.9869 143.117)" fill="#2F80ED"/>
<rect x="48.1647" y="139.295" width="2.7027" height="527.027" transform="rotate(-135 48.1647 139.295)" fill="#2F80ED"/>
<rect x="44.3427" y="135.473" width="2.7027" height="527.027" transform="rotate(-135 44.3427 135.473)" fill="#2F80ED"/>
<rect x="40.5205" y="131.65" width="2.7027" height="527.027" transform="rotate(-135 40.5205 131.65)" fill="#2F80ED"/>
<rect x="36.6984" y="127.828" width="2.7027" height="527.027" transform="rotate(-135 36.6984 127.828)" fill="#2F80ED"/>
<rect x="32.8759" y="124.006" width="2.7027" height="527.027" transform="rotate(-135 32.8759 124.006)" fill="#2F80ED"/>
<rect x="29.0538" y="120.184" width="2.7027" height="527.027" transform="rotate(-135 29.0538 120.184)" fill="#2F80ED"/>
<rect x="25.2317" y="116.362" width="2.7027" height="527.027" transform="rotate(-135 25.2317 116.362)" fill="#2F80ED"/>
<rect x="21.4096" y="112.539" width="2.7027" height="527.027" transform="rotate(-135 21.4096 112.539)" fill="#2F80ED"/>
<rect x="17.5871" y="108.717" width="2.7027" height="527.027" transform="rotate(-135 17.5871 108.717)" fill="#2F80ED"/>
<rect x="13.765" y="104.895" width="2.7027" height="527.027" transform="rotate(-135 13.765 104.895)" fill="#2F80ED"/>
<rect x="9.94287" y="101.073" width="2.7027" height="527.027" transform="rotate(-135 9.94287 101.073)" fill="#2F80ED"/>
<rect x="6.12076" y="97.2506" width="2.7027" height="527.027" transform="rotate(-135 6.12076 97.2506)" fill="#2F80ED"/>
<rect x="2.29832" y="93.4285" width="2.7027" height="527.027" transform="rotate(-135 2.29832 93.4285)" fill="#2F80ED"/>
</g>
</g>
</svg>
