<svg width="456" height="402" viewBox="0 0 456 402" fill="none" xmlns="http://www.w3.org/2000/svg">
<mask id="mask0_92_10912" style="mask-type:alpha" maskUnits="userSpaceOnUse" x="0" y="0" width="456" height="402">
<rect width="456" height="402" rx="25" fill="white"/>
</mask>
<g mask="url(#mask0_92_10912)">
<mask id="mask1_92_10912" style="mask-type:alpha" maskUnits="userSpaceOnUse" x="122" y="161" width="533" height="526">
<path fill-rule="evenodd" clip-rule="evenodd" d="M510.905 350.169C526.173 408.784 690.216 421.252 647.946 464.44C593.735 519.829 488.73 405.735 420.551 442.487C377.459 465.716 444.029 544.432 420.138 587.242C394.198 633.724 325.9 715.305 290.539 675.454C240.641 619.222 343.894 516.354 301.889 453.978C270.882 407.934 181.382 485.291 138.656 449.913C107.445 424.07 127.237 361.901 153.736 331.303C181.487 299.261 232.709 307.328 273.117 294.656C294.596 287.921 317.312 286.294 336.226 274.078C367.022 254.187 382.616 215.239 416.749 201.886C466.882 182.274 545.183 135.44 574.12 181.013C606.972 232.749 495.453 290.847 510.905 350.169Z" fill="#C4C4C4"/>
</mask>
<g mask="url(#mask1_92_10912)">
<rect x="342.278" y="-84.7415" width="3.31012" height="645.473" transform="rotate(45 342.278 -84.7415)" fill="#ED9C2F"/>
<rect x="346.959" y="-80.0603" width="3.31012" height="645.473" transform="rotate(45 346.959 -80.0603)" fill="#ED9C2F"/>
<rect x="351.64" y="-75.3791" width="3.31012" height="645.473" transform="rotate(45 351.64 -75.3791)" fill="#ED9C2F"/>
<rect x="356.322" y="-70.698" width="3.31012" height="645.473" transform="rotate(45 356.322 -70.698)" fill="#ED9C2F"/>
<rect x="361.003" y="-66.0166" width="3.31012" height="645.473" transform="rotate(45 361.003 -66.0166)" fill="#ED9C2F"/>
<rect x="365.684" y="-61.3355" width="3.31012" height="645.473" transform="rotate(45 365.684 -61.3355)" fill="#ED9C2F"/>
<rect x="370.365" y="-56.6541" width="3.31012" height="645.473" transform="rotate(45 370.365 -56.6541)" fill="#ED9C2F"/>
<rect x="375.047" y="-51.9731" width="3.31012" height="645.473" transform="rotate(45 375.047 -51.9731)" fill="#ED9C2F"/>
<rect x="379.728" y="-47.2917" width="3.31012" height="645.473" transform="rotate(45 379.728 -47.2917)" fill="#ED9C2F"/>
<rect x="384.409" y="-42.6106" width="3.31012" height="645.473" transform="rotate(45 384.409 -42.6106)" fill="#ED9C2F"/>
<rect x="389.09" y="-37.9293" width="3.31012" height="645.473" transform="rotate(45 389.09 -37.9293)" fill="#ED9C2F"/>
<rect x="393.772" y="-33.2482" width="3.31012" height="645.473" transform="rotate(45 393.772 -33.2482)" fill="#ED9C2F"/>
<rect x="398.453" y="-28.5668" width="3.31012" height="645.473" transform="rotate(45 398.453 -28.5668)" fill="#ED9C2F"/>
<rect x="403.134" y="-23.8857" width="3.31012" height="645.473" transform="rotate(45 403.134 -23.8857)" fill="#ED9C2F"/>
<rect x="407.815" y="-19.2043" width="3.31012" height="645.473" transform="rotate(45 407.815 -19.2043)" fill="#ED9C2F"/>
<rect x="412.497" y="-14.5233" width="3.31012" height="645.473" transform="rotate(45 412.497 -14.5233)" fill="#ED9C2F"/>
<rect x="417.178" y="-9.84196" width="3.31012" height="645.473" transform="rotate(45 417.178 -9.84196)" fill="#ED9C2F"/>
<rect x="421.859" y="-5.16084" width="3.31012" height="645.473" transform="rotate(45 421.859 -5.16084)" fill="#ED9C2F"/>
<rect x="426.54" y="-0.479477" width="3.31012" height="645.473" transform="rotate(45 426.54 -0.479477)" fill="#ED9C2F"/>
<rect x="431.221" y="4.20157" width="3.31012" height="645.473" transform="rotate(45 431.221 4.20157)" fill="#ED9C2F"/>
<rect x="435.902" y="8.88261" width="3.31012" height="645.473" transform="rotate(45 435.902 8.88261)" fill="#ED9C2F"/>
<rect x="440.584" y="13.5641" width="3.31012" height="645.473" transform="rotate(45 440.584 13.5641)" fill="#ED9C2F"/>
<rect x="445.265" y="18.2452" width="3.31012" height="645.473" transform="rotate(45 445.265 18.2452)" fill="#ED9C2F"/>
<rect x="449.946" y="22.9265" width="3.31012" height="645.473" transform="rotate(45 449.946 22.9265)" fill="#ED9C2F"/>
<rect x="454.627" y="27.6076" width="3.31012" height="645.473" transform="rotate(45 454.627 27.6076)" fill="#ED9C2F"/>
<rect x="459.308" y="32.2889" width="3.31012" height="645.473" transform="rotate(45 459.308 32.2889)" fill="#ED9C2F"/>
<rect x="463.99" y="36.9701" width="3.31012" height="645.473" transform="rotate(45 463.99 36.9701)" fill="#ED9C2F"/>
<rect x="468.671" y="41.6514" width="3.31012" height="645.473" transform="rotate(45 468.671 41.6514)" fill="#ED9C2F"/>
<rect x="473.352" y="46.3324" width="3.31012" height="645.473" transform="rotate(45 473.352 46.3324)" fill="#ED9C2F"/>
<rect x="478.033" y="51.0138" width="3.31012" height="645.473" transform="rotate(45 478.033 51.0138)" fill="#ED9C2F"/>
<rect x="482.714" y="55.695" width="3.31012" height="645.473" transform="rotate(45 482.714 55.695)" fill="#ED9C2F"/>
<rect x="487.396" y="60.3763" width="3.31012" height="645.473" transform="rotate(45 487.396 60.3763)" fill="#ED9C2F"/>
<rect x="492.077" y="65.0574" width="3.31012" height="645.473" transform="rotate(45 492.077 65.0574)" fill="#ED9C2F"/>
<rect x="496.758" y="69.7386" width="3.31012" height="645.473" transform="rotate(45 496.758 69.7386)" fill="#ED9C2F"/>
<rect x="501.439" y="74.4198" width="3.31012" height="645.473" transform="rotate(45 501.439 74.4198)" fill="#ED9C2F"/>
<rect x="506.12" y="79.1012" width="3.31012" height="645.473" transform="rotate(45 506.12 79.1012)" fill="#ED9C2F"/>
<rect x="510.802" y="83.7822" width="3.31012" height="645.473" transform="rotate(45 510.802 83.7822)" fill="#ED9C2F"/>
<rect x="515.483" y="88.4636" width="3.31012" height="645.473" transform="rotate(45 515.483 88.4636)" fill="#ED9C2F"/>
<rect x="520.164" y="93.1447" width="3.31012" height="645.473" transform="rotate(45 520.164 93.1447)" fill="#ED9C2F"/>
<rect x="524.845" y="97.8261" width="3.31012" height="645.473" transform="rotate(45 524.845 97.8261)" fill="#ED9C2F"/>
<rect x="529.526" y="102.507" width="3.31012" height="645.473" transform="rotate(45 529.526 102.507)" fill="#ED9C2F"/>
<rect x="534.208" y="107.188" width="3.31012" height="645.473" transform="rotate(45 534.208 107.188)" fill="#ED9C2F"/>
<rect x="538.889" y="111.87" width="3.31012" height="645.473" transform="rotate(45 538.889 111.87)" fill="#ED9C2F"/>
<rect x="543.57" y="116.551" width="3.31012" height="645.473" transform="rotate(45 543.57 116.551)" fill="#ED9C2F"/>
<rect x="548.251" y="121.232" width="3.31012" height="645.473" transform="rotate(45 548.251 121.232)" fill="#ED9C2F"/>
<rect x="552.933" y="125.913" width="3.31012" height="645.473" transform="rotate(45 552.933 125.913)" fill="#ED9C2F"/>
<rect x="557.614" y="130.595" width="3.31012" height="645.473" transform="rotate(45 557.614 130.595)" fill="#ED9C2F"/>
<rect x="562.295" y="135.276" width="3.31012" height="645.473" transform="rotate(45 562.295 135.276)" fill="#ED9C2F"/>
<rect x="566.976" y="139.957" width="3.31012" height="645.473" transform="rotate(45 566.976 139.957)" fill="#ED9C2F"/>
<rect x="571.658" y="144.638" width="3.31012" height="645.473" transform="rotate(45 571.658 144.638)" fill="#ED9C2F"/>
<rect x="576.339" y="149.319" width="3.31012" height="645.473" transform="rotate(45 576.339 149.319)" fill="#ED9C2F"/>
<rect x="581.02" y="154" width="3.31012" height="645.473" transform="rotate(45 581.02 154)" fill="#ED9C2F"/>
<rect x="585.701" y="158.682" width="3.31012" height="645.473" transform="rotate(45 585.701 158.682)" fill="#ED9C2F"/>
<rect x="590.383" y="163.363" width="3.31012" height="645.473" transform="rotate(45 590.383 163.363)" fill="#ED9C2F"/>
<rect x="595.064" y="168.044" width="3.31012" height="645.473" transform="rotate(45 595.064 168.044)" fill="#ED9C2F"/>
<rect x="599.745" y="172.725" width="3.31012" height="645.473" transform="rotate(45 599.745 172.725)" fill="#ED9C2F"/>
<rect x="604.426" y="177.407" width="3.31012" height="645.473" transform="rotate(45 604.426 177.407)" fill="#ED9C2F"/>
<rect x="609.108" y="182.088" width="3.31012" height="645.473" transform="rotate(45 609.108 182.088)" fill="#ED9C2F"/>
<rect x="613.789" y="186.769" width="3.31012" height="645.473" transform="rotate(45 613.789 186.769)" fill="#ED9C2F"/>
<rect x="618.47" y="191.45" width="3.31012" height="645.473" transform="rotate(45 618.47 191.45)" fill="#ED9C2F"/>
<rect x="623.151" y="196.131" width="3.31012" height="645.473" transform="rotate(45 623.151 196.131)" fill="#ED9C2F"/>
<rect x="627.832" y="200.813" width="3.31012" height="645.473" transform="rotate(45 627.832 200.813)" fill="#ED9C2F"/>
<rect x="632.514" y="205.494" width="3.31012" height="645.473" transform="rotate(45 632.514 205.494)" fill="#ED9C2F"/>
<rect x="637.195" y="210.175" width="3.31012" height="645.473" transform="rotate(45 637.195 210.175)" fill="#ED9C2F"/>
<rect x="641.876" y="214.856" width="3.31012" height="645.473" transform="rotate(45 641.876 214.856)" fill="#ED9C2F"/>
<rect x="646.557" y="219.538" width="3.31012" height="645.473" transform="rotate(45 646.557 219.538)" fill="#ED9C2F"/>
<rect x="651.239" y="224.219" width="3.31012" height="645.473" transform="rotate(45 651.239 224.219)" fill="#ED9C2F"/>
<rect x="655.92" y="228.9" width="3.31012" height="645.473" transform="rotate(45 655.92 228.9)" fill="#ED9C2F"/>
<rect x="660.601" y="233.581" width="3.31012" height="645.473" transform="rotate(45 660.601 233.581)" fill="#ED9C2F"/>
<rect x="665.282" y="238.263" width="3.31012" height="645.473" transform="rotate(45 665.282 238.263)" fill="#ED9C2F"/>
<rect x="669.963" y="242.944" width="3.31012" height="645.473" transform="rotate(45 669.963 242.944)" fill="#ED9C2F"/>
<rect x="674.644" y="247.625" width="3.31012" height="645.473" transform="rotate(45 674.644 247.625)" fill="#ED9C2F"/>
<rect x="679.326" y="252.306" width="3.31012" height="645.473" transform="rotate(45 679.326 252.306)" fill="#ED9C2F"/>
<rect x="684.007" y="256.987" width="3.31012" height="645.473" transform="rotate(45 684.007 256.987)" fill="#ED9C2F"/>
<rect x="688.688" y="261.668" width="3.31012" height="645.473" transform="rotate(45 688.688 261.668)" fill="#ED9C2F"/>
<rect x="693.369" y="266.35" width="3.31012" height="645.473" transform="rotate(45 693.369 266.35)" fill="#ED9C2F"/>
<rect x="698.05" y="271.031" width="3.31012" height="645.473" transform="rotate(45 698.05 271.031)" fill="#ED9C2F"/>
<rect x="702.731" y="275.712" width="3.31012" height="645.473" transform="rotate(45 702.731 275.712)" fill="#ED9C2F"/>
<rect x="707.413" y="280.393" width="3.31012" height="645.473" transform="rotate(45 707.413 280.393)" fill="#ED9C2F"/>
<rect x="712.094" y="285.074" width="3.31012" height="645.473" transform="rotate(45 712.094 285.074)" fill="#ED9C2F"/>
<rect x="716.775" y="289.756" width="3.31012" height="645.473" transform="rotate(45 716.775 289.756)" fill="#ED9C2F"/>
<rect x="721.456" y="294.437" width="3.31012" height="645.473" transform="rotate(45 721.456 294.437)" fill="#ED9C2F"/>
<rect x="726.138" y="299.118" width="3.31012" height="645.473" transform="rotate(45 726.138 299.118)" fill="#ED9C2F"/>
<rect x="730.819" y="303.799" width="3.31012" height="645.473" transform="rotate(45 730.819 303.799)" fill="#ED9C2F"/>
<rect x="735.5" y="308.481" width="3.31012" height="645.473" transform="rotate(45 735.5 308.481)" fill="#ED9C2F"/>
<rect x="740.181" y="313.162" width="3.31012" height="645.473" transform="rotate(45 740.181 313.162)" fill="#ED9C2F"/>
<rect x="744.862" y="317.843" width="3.31012" height="645.473" transform="rotate(45 744.862 317.843)" fill="#ED9C2F"/>
<rect x="749.544" y="322.524" width="3.31012" height="645.473" transform="rotate(45 749.544 322.524)" fill="#ED9C2F"/>
<rect x="754.225" y="327.206" width="3.31012" height="645.473" transform="rotate(45 754.225 327.206)" fill="#ED9C2F"/>
<rect x="758.906" y="331.887" width="3.31012" height="645.473" transform="rotate(45 758.906 331.887)" fill="#ED9C2F"/>
<rect x="763.587" y="336.568" width="3.31012" height="645.473" transform="rotate(45 763.587 336.568)" fill="#ED9C2F"/>
<rect x="768.269" y="341.249" width="3.31012" height="645.473" transform="rotate(45 768.269 341.249)" fill="#ED9C2F"/>
<rect x="772.95" y="345.93" width="3.31012" height="645.473" transform="rotate(45 772.95 345.93)" fill="#ED9C2F"/>
<rect x="777.631" y="350.612" width="3.31012" height="645.473" transform="rotate(45 777.631 350.612)" fill="#ED9C2F"/>
<rect x="782.312" y="355.293" width="3.31012" height="645.473" transform="rotate(45 782.312 355.293)" fill="#ED9C2F"/>
<rect x="786.994" y="359.974" width="3.31012" height="645.473" transform="rotate(45 786.994 359.974)" fill="#ED9C2F"/>
<rect x="791.675" y="364.655" width="3.31012" height="645.473" transform="rotate(45 791.675 364.655)" fill="#ED9C2F"/>
<rect x="796.356" y="369.336" width="3.31012" height="645.473" transform="rotate(45 796.356 369.336)" fill="#ED9C2F"/>
<rect x="801.037" y="374.018" width="3.31012" height="645.473" transform="rotate(45 801.037 374.018)" fill="#ED9C2F"/>
<rect x="805.718" y="378.699" width="3.31012" height="645.473" transform="rotate(45 805.718 378.699)" fill="#ED9C2F"/>
<rect x="810.4" y="383.38" width="3.31012" height="645.473" transform="rotate(45 810.4 383.38)" fill="#ED9C2F"/>
<rect x="815.081" y="388.061" width="3.31012" height="645.473" transform="rotate(45 815.081 388.061)" fill="#ED9C2F"/>
<rect x="819.762" y="392.743" width="3.31012" height="645.473" transform="rotate(45 819.762 392.743)" fill="#ED9C2F"/>
<rect x="824.443" y="397.424" width="3.31012" height="645.473" transform="rotate(45 824.443 397.424)" fill="#ED9C2F"/>
</g>
</g>
</svg>
