<svg width="353" height="200" viewBox="0 0 353 200" fill="none" xmlns="http://www.w3.org/2000/svg">
<mask id="mask0_92_10287" style="mask-type:alpha" maskUnits="userSpaceOnUse" x="0" y="0" width="353" height="200">
<rect width="353" height="200" rx="25" fill="white"/>
</mask>
<g mask="url(#mask0_92_10287)">
<mask id="mask1_92_10287" style="mask-type:alpha" maskUnits="userSpaceOnUse" x="259" y="-123" width="395" height="453">
<path fill-rule="evenodd" clip-rule="evenodd" d="M517.233 -22.308C531.92 -10.7275 544.335 2.0684 558.386 14.4134C590.262 42.4195 663.036 55.5288 652.664 96.6812C642.38 137.484 553.232 86.3025 531.225 122.171C498.229 175.952 562.308 258.684 522.991 308.034C492.716 346.034 426.561 325.384 379.797 312.242C333.306 299.178 268.396 281.967 260.62 234.305C250.776 173.964 315.097 128.277 340.728 72.7609C348.944 54.9655 360.604 37.9763 360.308 18.3801C359.841 -12.6425 328.617 -41.0969 338.568 -70.4868C347.952 -98.2029 378.887 -126.28 407.825 -121.964C441.31 -116.971 451.839 -72.6585 476.866 -49.8626C489.119 -38.7019 504.218 -32.5698 517.233 -22.308Z" fill="#C4C4C4"/>
</mask>
<g mask="url(#mask1_92_10287)">
<rect x="367.826" y="-325.746" width="3.1746" height="619.048" transform="rotate(45 367.826 -325.746)" fill="#ED9C2F"/>
<rect x="372.315" y="-321.256" width="3.1746" height="619.048" transform="rotate(45 372.315 -321.256)" fill="#ED9C2F"/>
<rect x="376.805" y="-316.767" width="3.1746" height="619.048" transform="rotate(45 376.805 -316.767)" fill="#ED9C2F"/>
<rect x="381.295" y="-312.277" width="3.1746" height="619.048" transform="rotate(45 381.295 -312.277)" fill="#ED9C2F"/>
<rect x="385.784" y="-307.787" width="3.1746" height="619.048" transform="rotate(45 385.784 -307.787)" fill="#ED9C2F"/>
<rect x="390.273" y="-303.298" width="3.1746" height="619.048" transform="rotate(45 390.273 -303.298)" fill="#ED9C2F"/>
<rect x="394.763" y="-298.808" width="3.1746" height="619.048" transform="rotate(45 394.763 -298.808)" fill="#ED9C2F"/>
<rect x="399.253" y="-294.319" width="3.1746" height="619.048" transform="rotate(45 399.253 -294.319)" fill="#ED9C2F"/>
<rect x="403.742" y="-289.829" width="3.1746" height="619.048" transform="rotate(45 403.742 -289.829)" fill="#ED9C2F"/>
<rect x="408.232" y="-285.34" width="3.1746" height="619.048" transform="rotate(45 408.232 -285.34)" fill="#ED9C2F"/>
<rect x="412.721" y="-280.85" width="3.1746" height="619.048" transform="rotate(45 412.721 -280.85)" fill="#ED9C2F"/>
<rect x="417.211" y="-276.361" width="3.1746" height="619.048" transform="rotate(45 417.211 -276.361)" fill="#ED9C2F"/>
<rect x="421.701" y="-271.871" width="3.1746" height="619.048" transform="rotate(45 421.701 -271.871)" fill="#ED9C2F"/>
<rect x="426.19" y="-267.381" width="3.1746" height="619.048" transform="rotate(45 426.19 -267.381)" fill="#ED9C2F"/>
<rect x="430.68" y="-262.892" width="3.1746" height="619.048" transform="rotate(45 430.68 -262.892)" fill="#ED9C2F"/>
<rect x="435.169" y="-258.402" width="3.1746" height="619.048" transform="rotate(45 435.169 -258.402)" fill="#ED9C2F"/>
<rect x="439.659" y="-253.913" width="3.1746" height="619.048" transform="rotate(45 439.659 -253.913)" fill="#ED9C2F"/>
<rect x="444.148" y="-249.423" width="3.1746" height="619.048" transform="rotate(45 444.148 -249.423)" fill="#ED9C2F"/>
<rect x="448.638" y="-244.934" width="3.1746" height="619.048" transform="rotate(45 448.638 -244.934)" fill="#ED9C2F"/>
<rect x="453.128" y="-240.444" width="3.1746" height="619.048" transform="rotate(45 453.128 -240.444)" fill="#ED9C2F"/>
<rect x="457.617" y="-235.954" width="3.1746" height="619.048" transform="rotate(45 457.617 -235.954)" fill="#ED9C2F"/>
<rect x="462.107" y="-231.465" width="3.1746" height="619.048" transform="rotate(45 462.107 -231.465)" fill="#ED9C2F"/>
<rect x="466.596" y="-226.975" width="3.1746" height="619.048" transform="rotate(45 466.596 -226.975)" fill="#ED9C2F"/>
<rect x="471.086" y="-222.486" width="3.1746" height="619.048" transform="rotate(45 471.086 -222.486)" fill="#ED9C2F"/>
<rect x="475.575" y="-217.996" width="3.1746" height="619.048" transform="rotate(45 475.575 -217.996)" fill="#ED9C2F"/>
<rect x="480.065" y="-213.507" width="3.1746" height="619.048" transform="rotate(45 480.065 -213.507)" fill="#ED9C2F"/>
<rect x="484.554" y="-209.017" width="3.1746" height="619.048" transform="rotate(45 484.554 -209.017)" fill="#ED9C2F"/>
<rect x="489.044" y="-204.527" width="3.1746" height="619.048" transform="rotate(45 489.044 -204.527)" fill="#ED9C2F"/>
<rect x="493.534" y="-200.038" width="3.1746" height="619.048" transform="rotate(45 493.534 -200.038)" fill="#ED9C2F"/>
<rect x="498.023" y="-195.548" width="3.1746" height="619.048" transform="rotate(45 498.023 -195.548)" fill="#ED9C2F"/>
<rect x="502.513" y="-191.059" width="3.1746" height="619.048" transform="rotate(45 502.513 -191.059)" fill="#ED9C2F"/>
<rect x="507.002" y="-186.569" width="3.1746" height="619.048" transform="rotate(45 507.002 -186.569)" fill="#ED9C2F"/>
<rect x="511.492" y="-182.08" width="3.1746" height="619.048" transform="rotate(45 511.492 -182.08)" fill="#ED9C2F"/>
<rect x="515.982" y="-177.59" width="3.1746" height="619.048" transform="rotate(45 515.982 -177.59)" fill="#ED9C2F"/>
<rect x="520.471" y="-173.1" width="3.1746" height="619.048" transform="rotate(45 520.471 -173.1)" fill="#ED9C2F"/>
<rect x="524.96" y="-168.611" width="3.1746" height="619.048" transform="rotate(45 524.96 -168.611)" fill="#ED9C2F"/>
<rect x="529.45" y="-164.121" width="3.1746" height="619.048" transform="rotate(45 529.45 -164.121)" fill="#ED9C2F"/>
<rect x="533.94" y="-159.632" width="3.1746" height="619.048" transform="rotate(45 533.94 -159.632)" fill="#ED9C2F"/>
<rect x="538.429" y="-155.142" width="3.1746" height="619.048" transform="rotate(45 538.429 -155.142)" fill="#ED9C2F"/>
<rect x="542.919" y="-150.653" width="3.1746" height="619.048" transform="rotate(45 542.919 -150.653)" fill="#ED9C2F"/>
<rect x="547.408" y="-146.163" width="3.1746" height="619.048" transform="rotate(45 547.408 -146.163)" fill="#ED9C2F"/>
<rect x="551.898" y="-141.673" width="3.1746" height="619.048" transform="rotate(45 551.898 -141.673)" fill="#ED9C2F"/>
<rect x="556.388" y="-137.184" width="3.1746" height="619.048" transform="rotate(45 556.388 -137.184)" fill="#ED9C2F"/>
<rect x="560.877" y="-132.694" width="3.1746" height="619.048" transform="rotate(45 560.877 -132.694)" fill="#ED9C2F"/>
<rect x="565.367" y="-128.205" width="3.1746" height="619.048" transform="rotate(45 565.367 -128.205)" fill="#ED9C2F"/>
<rect x="569.856" y="-123.715" width="3.1746" height="619.048" transform="rotate(45 569.856 -123.715)" fill="#ED9C2F"/>
<rect x="574.346" y="-119.226" width="3.1746" height="619.048" transform="rotate(45 574.346 -119.226)" fill="#ED9C2F"/>
<rect x="578.835" y="-114.736" width="3.1746" height="619.048" transform="rotate(45 578.835 -114.736)" fill="#ED9C2F"/>
<rect x="583.325" y="-110.246" width="3.1746" height="619.048" transform="rotate(45 583.325 -110.246)" fill="#ED9C2F"/>
<rect x="587.815" y="-105.757" width="3.1746" height="619.048" transform="rotate(45 587.815 -105.757)" fill="#ED9C2F"/>
<rect x="592.304" y="-101.267" width="3.1746" height="619.048" transform="rotate(45 592.304 -101.267)" fill="#ED9C2F"/>
<rect x="596.794" y="-96.7778" width="3.1746" height="619.048" transform="rotate(45 596.794 -96.7778)" fill="#ED9C2F"/>
<rect x="601.283" y="-92.2883" width="3.1746" height="619.048" transform="rotate(45 601.283 -92.2883)" fill="#ED9C2F"/>
<rect x="605.773" y="-87.7987" width="3.1746" height="619.048" transform="rotate(45 605.773 -87.7987)" fill="#ED9C2F"/>
<rect x="610.262" y="-83.3091" width="3.1746" height="619.048" transform="rotate(45 610.262 -83.3091)" fill="#ED9C2F"/>
<rect x="614.752" y="-78.8195" width="3.1746" height="619.048" transform="rotate(45 614.752 -78.8195)" fill="#ED9C2F"/>
<rect x="619.241" y="-74.33" width="3.1746" height="619.048" transform="rotate(45 619.241 -74.33)" fill="#ED9C2F"/>
<rect x="623.731" y="-69.8404" width="3.1746" height="619.048" transform="rotate(45 623.731 -69.8404)" fill="#ED9C2F"/>
<rect x="628.221" y="-65.3508" width="3.1746" height="619.048" transform="rotate(45 628.221 -65.3508)" fill="#ED9C2F"/>
<rect x="632.71" y="-60.8613" width="3.1746" height="619.048" transform="rotate(45 632.71 -60.8613)" fill="#ED9C2F"/>
<rect x="637.2" y="-56.3717" width="3.1746" height="619.048" transform="rotate(45 637.2 -56.3717)" fill="#ED9C2F"/>
<rect x="641.689" y="-51.8821" width="3.1746" height="619.048" transform="rotate(45 641.689 -51.8821)" fill="#ED9C2F"/>
<rect x="646.179" y="-47.3925" width="3.1746" height="619.048" transform="rotate(45 646.179 -47.3925)" fill="#ED9C2F"/>
<rect x="650.668" y="-42.903" width="3.1746" height="619.048" transform="rotate(45 650.668 -42.903)" fill="#ED9C2F"/>
<rect x="655.158" y="-38.4134" width="3.1746" height="619.048" transform="rotate(45 655.158 -38.4134)" fill="#ED9C2F"/>
<rect x="659.647" y="-33.9238" width="3.1746" height="619.048" transform="rotate(45 659.647 -33.9238)" fill="#ED9C2F"/>
<rect x="664.137" y="-29.4343" width="3.1746" height="619.048" transform="rotate(45 664.137 -29.4343)" fill="#ED9C2F"/>
<rect x="668.627" y="-24.9446" width="3.1746" height="619.048" transform="rotate(45 668.627 -24.9446)" fill="#ED9C2F"/>
<rect x="673.116" y="-20.4552" width="3.1746" height="619.048" transform="rotate(45 673.116 -20.4552)" fill="#ED9C2F"/>
<rect x="677.606" y="-15.9655" width="3.1746" height="619.048" transform="rotate(45 677.606 -15.9655)" fill="#ED9C2F"/>
<rect x="682.096" y="-11.4761" width="3.1746" height="619.048" transform="rotate(45 682.096 -11.4761)" fill="#ED9C2F"/>
<rect x="686.585" y="-6.98639" width="3.1746" height="619.048" transform="rotate(45 686.585 -6.98639)" fill="#ED9C2F"/>
<rect x="691.074" y="-2.49695" width="3.1746" height="619.048" transform="rotate(45 691.074 -2.49695)" fill="#ED9C2F"/>
<rect x="695.564" y="1.99274" width="3.1746" height="619.048" transform="rotate(45 695.564 1.99274)" fill="#ED9C2F"/>
<rect x="700.054" y="6.48224" width="3.1746" height="619.048" transform="rotate(45 700.054 6.48224)" fill="#ED9C2F"/>
<rect x="704.543" y="10.9719" width="3.1746" height="619.048" transform="rotate(45 704.543 10.9719)" fill="#ED9C2F"/>
<rect x="709.033" y="15.4614" width="3.1746" height="619.048" transform="rotate(45 709.033 15.4614)" fill="#ED9C2F"/>
<rect x="713.522" y="19.951" width="3.1746" height="619.048" transform="rotate(45 713.522 19.951)" fill="#ED9C2F"/>
<rect x="718.012" y="24.4405" width="3.1746" height="619.048" transform="rotate(45 718.012 24.4405)" fill="#ED9C2F"/>
<rect x="722.502" y="28.93" width="3.1746" height="619.048" transform="rotate(45 722.502 28.93)" fill="#ED9C2F"/>
<rect x="726.991" y="33.4196" width="3.1746" height="619.048" transform="rotate(45 726.991 33.4196)" fill="#ED9C2F"/>
<rect x="731.481" y="37.9091" width="3.1746" height="619.048" transform="rotate(45 731.481 37.9091)" fill="#ED9C2F"/>
<rect x="735.97" y="42.3988" width="3.1746" height="619.048" transform="rotate(45 735.97 42.3988)" fill="#ED9C2F"/>
<rect x="740.46" y="46.8883" width="3.1746" height="619.048" transform="rotate(45 740.46 46.8883)" fill="#ED9C2F"/>
<rect x="744.949" y="51.3779" width="3.1746" height="619.048" transform="rotate(45 744.949 51.3779)" fill="#ED9C2F"/>
<rect x="749.439" y="55.8674" width="3.1746" height="619.048" transform="rotate(45 749.439 55.8674)" fill="#ED9C2F"/>
<rect x="753.928" y="60.3571" width="3.1746" height="619.048" transform="rotate(45 753.928 60.3571)" fill="#ED9C2F"/>
<rect x="758.418" y="64.8466" width="3.1746" height="619.048" transform="rotate(45 758.418 64.8466)" fill="#ED9C2F"/>
<rect x="762.908" y="69.3362" width="3.1746" height="619.048" transform="rotate(45 762.908 69.3362)" fill="#ED9C2F"/>
<rect x="767.397" y="73.8257" width="3.1746" height="619.048" transform="rotate(45 767.397 73.8257)" fill="#ED9C2F"/>
<rect x="771.887" y="78.3154" width="3.1746" height="619.048" transform="rotate(45 771.887 78.3154)" fill="#ED9C2F"/>
<rect x="776.376" y="82.8049" width="3.1746" height="619.048" transform="rotate(45 776.376 82.8049)" fill="#ED9C2F"/>
<rect x="780.866" y="87.2945" width="3.1746" height="619.048" transform="rotate(45 780.866 87.2945)" fill="#ED9C2F"/>
<rect x="785.355" y="91.784" width="3.1746" height="619.048" transform="rotate(45 785.355 91.784)" fill="#ED9C2F"/>
<rect x="789.845" y="96.2737" width="3.1746" height="619.048" transform="rotate(45 789.845 96.2737)" fill="#ED9C2F"/>
</g>
</g>
</svg>
